<svg width="44" height="44" viewBox="0 0 44 44" fill="none" xmlns="http://www.w3.org/2000/svg">
<g clip-path="url(#clip0_314_1057)">
<rect width="44" height="44" fill="white"/>
<path d="M21.9999 41.25C16.8574 41.25 12.0242 39.248 8.38873 35.6111C2.44598 29.6698 1.03523 20.6594 4.87698 13.1931C5.22485 12.518 6.0526 12.2526 6.7291 12.5991C7.40423 12.9456 7.67098 13.7748 7.3231 14.4513C4.02998 20.8519 5.2386 28.5739 10.333 33.6669C13.4487 36.784 17.5916 38.5 21.9999 38.5C26.4067 38.5 30.551 36.784 33.6667 33.6669C36.7825 30.5498 38.4999 26.4069 38.4999 22C38.4999 17.5917 36.7839 13.4489 33.6667 10.3331C30.5496 7.21737 26.4081 5.5 21.9999 5.5C17.5916 5.5 13.4487 7.21737 10.333 10.3331C9.79535 10.8707 8.92635 10.8707 8.38873 10.3331C7.8511 9.7955 7.8511 8.9265 8.38873 8.38887C12.0242 4.75337 16.8574 2.75 21.9999 2.75C27.1424 2.75 31.9769 4.75337 35.611 8.38887C39.2479 12.0244 41.2499 16.8575 41.2499 22C41.2499 27.1411 39.2479 31.9756 35.611 35.6111C31.9769 39.248 27.1424 41.25 21.9999 41.25Z" fill="#263238"/>
<path d="M22 30.25C21.241 30.25 20.625 29.6354 20.625 28.875V15.125C20.625 14.366 21.241 13.75 22 13.75C22.759 13.75 23.375 14.366 23.375 15.125V28.875C23.375 29.6354 22.759 30.25 22 30.25Z" fill="#263238"/>
<path d="M28.875 23.375H15.125C14.366 23.375 13.75 22.759 13.75 22C13.75 21.241 14.366 20.625 15.125 20.625H28.875C29.6354 20.625 30.25 21.241 30.25 22C30.25 22.759 29.6354 23.375 28.875 23.375Z" fill="#263238"/>
</g>
<defs>
<clipPath id="clip0_314_1057">
<rect width="44" height="44" fill="white"/>
</clipPath>
</defs>
</svg>
