<svg width="30" height="31" viewBox="0 0 30 31" fill="none" xmlns="http://www.w3.org/2000/svg">
<path fill-rule="evenodd" clip-rule="evenodd" d="M5.60012 2.51418L5.49946 2.51412C5.04256 2.51368 4.6487 2.5133 4.29978 2.59698C3.20284 2.86004 2.34636 3.71558 2.08302 4.81133C1.99925 5.15987 1.99963 5.5533 2.00006 6.0097L2.00012 6.11025V10.905L2.00006 11.0056C1.99963 11.462 1.99925 11.8554 2.08302 12.2039C2.34636 13.2997 3.20284 14.1552 4.29978 14.4183C4.6487 14.502 5.04256 14.5016 5.49946 14.5012L5.60012 14.5011H10.4001L10.5008 14.5012C10.9577 14.5016 11.3516 14.502 11.7005 14.4183C12.7974 14.1552 13.6539 13.2997 13.9172 12.2039C14.001 11.8554 14.0006 11.462 14.0002 11.0056L14.0001 10.905V6.11025L14.0002 6.0097C14.0006 5.5533 14.001 5.15987 13.9172 4.81133C13.6539 3.71558 12.7974 2.86004 11.7005 2.59698C11.3516 2.5133 10.9577 2.51368 10.5008 2.51412L10.4001 2.51418H5.60012ZM4.76668 4.5396C4.85276 4.51895 4.98456 4.51199 5.60012 4.51199H10.4001C11.0157 4.51199 11.1475 4.51895 11.2336 4.5396C11.5992 4.62729 11.8847 4.91246 11.9725 5.27772C11.9932 5.36371 12.0001 5.49536 12.0001 6.11025V10.905C12.0001 11.5199 11.9932 11.6516 11.9725 11.7376C11.8847 12.1028 11.5992 12.388 11.2336 12.4757C11.1475 12.4963 11.0157 12.5033 10.4001 12.5033H5.60012C4.98456 12.5033 4.85276 12.4963 4.76668 12.4757C4.40102 12.388 4.11554 12.1028 4.02776 11.7376C4.00708 11.6516 4.00012 11.5199 4.00012 10.905V6.11025C4.00012 5.49536 4.00708 5.36371 4.02776 5.27772C4.11554 4.91246 4.40102 4.62729 4.76668 4.5396ZM19.6001 2.51418L19.4995 2.51412C19.0426 2.51368 18.6487 2.5133 18.2998 2.59698C17.2028 2.86004 16.3464 3.71558 16.083 4.81133C15.9992 5.15987 15.9996 5.5533 16.0001 6.0097L16.0001 6.11025V10.905L16.0001 11.0056C15.9996 11.462 15.9992 11.8554 16.083 12.2039C16.3464 13.2997 17.2028 14.1552 18.2998 14.4183C18.6487 14.502 19.0426 14.5016 19.4995 14.5012L19.6001 14.5011H24.4001L24.5007 14.5012C24.9577 14.5016 25.3515 14.502 25.7005 14.4183C26.7973 14.1552 27.6539 13.2997 27.9173 12.2039C28.0009 11.8554 28.0007 11.462 28.0001 11.0056V10.905V6.11025V6.0097C28.0007 5.5533 28.0009 5.15987 27.9173 4.81133C27.6539 3.71558 26.7973 2.86004 25.7005 2.59698C25.3515 2.5133 24.9577 2.51368 24.5007 2.51412L24.4001 2.51418H19.6001ZM18.7667 4.5396C18.8528 4.51895 18.9846 4.51199 19.6001 4.51199H24.4001C25.0157 4.51199 25.1475 4.51895 25.2335 4.5396C25.5991 4.62729 25.8847 4.91246 25.9725 5.27772C25.9931 5.36371 26.0001 5.49536 26.0001 6.11025V10.905C26.0001 11.5199 25.9931 11.6516 25.9725 11.7376C25.8847 12.1028 25.5991 12.388 25.2335 12.4757C25.1475 12.4963 25.0157 12.5033 24.4001 12.5033H19.6001C18.9846 12.5033 18.8528 12.4963 18.7667 12.4757C18.401 12.388 18.1155 12.1028 18.0278 11.7376C18.0071 11.6516 18.0001 11.5199 18.0001 10.905V6.11025C18.0001 5.49536 18.0071 5.36371 18.0278 5.27772C18.1155 4.91246 18.401 4.62729 18.7667 4.5396ZM5.49946 16.4989L5.60012 16.4989H10.4001L10.5008 16.4989C10.9577 16.4984 11.3516 16.498 11.7005 16.5817C12.7974 16.8448 13.6539 17.7003 13.9172 18.7961C14.001 19.1446 14.0006 19.538 14.0002 19.9944L14.0001 20.095V24.8898L14.0002 24.9902C14.0006 25.4467 14.001 25.8401 13.9172 26.1887C13.6539 27.2843 12.7974 28.14 11.7005 28.4031C11.3516 28.4866 10.9577 28.4864 10.5008 28.4858H10.4001H5.60012H5.49946C5.04256 28.4864 4.6487 28.4866 4.29978 28.4031C3.20284 28.14 2.34636 27.2843 2.08302 26.1887C1.99925 25.8401 1.99963 25.4467 2.00006 24.9902L2.00012 24.8898V20.095L2.00006 19.9944C1.99963 19.538 1.99925 19.1446 2.08302 18.7961C2.34636 17.7003 3.20284 16.8448 4.29978 16.5817C4.6487 16.498 5.04256 16.4984 5.49946 16.4989ZM5.60012 18.4967C4.98456 18.4967 4.85276 18.5037 4.76668 18.5243C4.40102 18.612 4.11554 18.8972 4.02776 19.2625C4.00708 19.3484 4.00012 19.4801 4.00012 20.095V24.8898C4.00012 25.5047 4.00708 25.6363 4.02776 25.7222C4.11554 26.0875 4.40102 26.3727 4.76668 26.4604C4.85276 26.481 4.98456 26.488 5.60012 26.488H10.4001C11.0157 26.488 11.1475 26.481 11.2336 26.4604C11.5992 26.3727 11.8847 26.0875 11.9725 25.7222C11.9932 25.6363 12.0001 25.5047 12.0001 24.8898V20.095C12.0001 19.4801 11.9932 19.3484 11.9725 19.2625C11.8847 18.8972 11.5992 18.612 11.2336 18.5243C11.1475 18.5037 11.0157 18.4967 10.4001 18.4967H5.60012ZM19.6001 16.4989L19.4995 16.4989C19.0426 16.4984 18.6487 16.498 18.2998 16.5817C17.2028 16.8448 16.3464 17.7003 16.083 18.7961C15.9992 19.1446 15.9996 19.538 16.0001 19.9944L16.0001 20.095V24.8898L16.0001 24.9902C15.9996 25.4467 15.9992 25.8401 16.083 26.1887C16.3464 27.2843 17.2028 28.14 18.2998 28.4031C18.6487 28.4866 19.0426 28.4864 19.4995 28.4858H19.6001H24.4001H24.5007C24.9577 28.4864 25.3515 28.4866 25.7005 28.4031C26.7973 28.14 27.6539 27.2843 27.9173 26.1887C28.0009 25.8401 28.0007 25.4467 28.0001 24.9902V24.8898V20.095V19.9944C28.0007 19.538 28.0009 19.1446 27.9173 18.7961C27.6539 17.7003 26.7973 16.8448 25.7005 16.5817C25.3515 16.498 24.9577 16.4984 24.5007 16.4989L24.4001 16.4989H19.6001ZM18.7667 18.5243C18.8528 18.5037 18.9846 18.4967 19.6001 18.4967H24.4001C25.0157 18.4967 25.1475 18.5037 25.2335 18.5243C25.5991 18.612 25.8847 18.8972 25.9725 19.2625C25.9931 19.3484 26.0001 19.4801 26.0001 20.095V24.8898C26.0001 25.5047 25.9931 25.6363 25.9725 25.7222C25.8847 26.0875 25.5991 26.3727 25.2335 26.4604C25.1475 26.481 25.0157 26.488 24.4001 26.488H19.6001C18.9846 26.488 18.8528 26.481 18.7667 26.4604C18.401 26.3727 18.1155 26.0875 18.0278 25.7222C18.0071 25.6363 18.0001 25.5047 18.0001 24.8898V20.095C18.0001 19.4801 18.0071 19.3484 18.0278 19.2625C18.1155 18.8972 18.401 18.612 18.7667 18.5243Z" fill="#A6C72A"/>
</svg>
