<svg width="157" height="57" viewBox="0 0 157 57" fill="none" xmlns="http://www.w3.org/2000/svg">
<mask id="mask0_223_261" style="mask-type:luminance" maskUnits="userSpaceOnUse" x="18" y="18" width="40" height="39">
<path d="M18.9316 18.7746H57.2115V57H18.9316V18.7746Z" fill="white"/>
</mask>
<g mask="url(#mask0_223_261)">
<path d="M54.782 19.1972C46.3561 19.1972 38.2695 22.5061 32.2774 28.4111L28.7974 31.8393C22.6987 37.8461 19.2666 46.0373 19.2666 54.5816C19.2666 55.9165 20.3541 57 21.6961 57H35.516C36.8579 57 37.9454 55.9187 37.9454 54.5816V42.1129C37.9454 39.7336 39.8812 37.805 42.2693 37.805H54.7842C56.124 37.805 57.2137 36.7215 57.2137 35.3844V21.6155C57.2115 20.2807 56.124 19.1972 54.782 19.1972Z" fill="#77AD78"/>
</g>
<path d="M43.5304 14.8893H44.4635C47.6477 14.8893 50.2272 12.3171 50.2272 9.14679V8.21499C50.2272 7.42188 49.5834 6.78046 48.7852 6.78046H47.8521C44.6679 6.78046 42.0884 9.35048 42.0884 12.5229V13.4526C42.0884 14.2457 42.7344 14.8893 43.5304 14.8893Z" fill="#77AD78"/>
<mask id="mask1_223_261" style="mask-type:luminance" maskUnits="userSpaceOnUse" x="0" y="0" width="39" height="39">
<path d="M0 0H38.419V38.1907H0V0Z" fill="white"/>
</mask>
<g mask="url(#mask1_223_261)">
<path d="M35.5154 0H21.6955C20.3536 0 19.2661 1.08349 19.2661 2.42051V14.8893C19.2661 17.2686 17.3303 19.1972 14.9422 19.1972H2.42946C1.0875 19.1972 0 20.2807 0 21.6155V35.3845C0 36.7215 1.0875 37.805 2.42946 37.805C10.8554 37.805 18.942 34.4938 24.9341 28.591L28.4141 25.1629C34.5128 19.1539 37.9449 10.9649 37.9449 2.42051C37.9449 1.08349 36.8574 0 35.5154 0Z" fill="#A6C72A"/>
</g>
<path d="M14.4377 41.3935H13.5025C10.3183 41.3935 7.73877 43.9657 7.73877 47.1381V48.0678C7.73877 48.8609 8.38474 49.5045 9.18079 49.5045H10.1139C13.298 49.5045 15.8776 46.9323 15.8776 43.762V42.8302C15.8776 42.0371 15.2316 41.3935 14.4377 41.3935Z" fill="#A6C72A"/>
<path d="M75.4576 28.7991C75.3011 28.8468 75.0575 28.888 74.7269 28.9291C74.3963 28.9681 74.0678 28.9898 73.7438 28.9898C73.4175 28.9898 73.1304 28.9638 72.8825 28.9118C72.6389 28.8663 72.4301 28.7796 72.2561 28.6518C72.0864 28.5261 71.9603 28.3527 71.8733 28.1317C71.7906 27.9063 71.7515 27.6095 71.7515 27.2389V16.1093C71.9081 16.0812 72.1538 16.0443 72.491 15.9967C72.8324 15.9446 73.1565 15.9186 73.4654 15.9186C73.7894 15.9186 74.0744 15.9446 74.318 15.9967C74.5659 16.0443 74.7747 16.131 74.9444 16.2567C75.1118 16.3845 75.2402 16.5601 75.3272 16.7854C75.4141 17.0108 75.4576 17.3055 75.4576 17.6696V28.7991Z" fill="#77AD78"/>
<path d="M82.8582 18.3283C83.4367 18.3283 84.0066 18.4107 84.5634 18.571C85.1202 18.7335 85.6008 18.9741 86.0076 19.2904C86.4295 19.0131 86.9058 18.7855 87.4344 18.6057C87.9672 18.4215 88.6088 18.3283 89.357 18.3283C89.8899 18.3283 90.4141 18.3977 90.9317 18.5363C91.4472 18.675 91.9061 18.8982 92.3063 19.2038C92.7065 19.505 93.0241 19.9037 93.2633 20.3999C93.5069 20.8983 93.6287 21.5051 93.6287 22.2202V28.8685C93.4895 28.9075 93.2655 28.9486 92.9588 28.9898C92.6565 29.0288 92.3433 29.0505 92.0192 29.0505C91.7104 29.0505 91.432 29.0288 91.184 28.9898C90.9404 28.9486 90.7316 28.8663 90.5576 28.7384C90.388 28.6128 90.2575 28.4416 90.1661 28.227C90.0791 28.0082 90.0356 27.7221 90.0356 27.3689V22.3329C90.0356 21.9125 89.9138 21.6048 89.6702 21.4141C89.431 21.2234 89.1069 21.128 88.6958 21.128C88.4979 21.128 88.287 21.1757 88.0608 21.2667C87.8346 21.3599 87.6649 21.4552 87.5562 21.5528C87.567 21.6048 87.5736 21.6568 87.5736 21.7088C87.5736 21.7565 87.5736 21.802 87.5736 21.8475V28.8685C87.4213 28.9075 87.1929 28.9486 86.8863 28.9898C86.5839 29.0288 86.2794 29.0505 85.9728 29.0505C85.6596 29.0505 85.3768 29.0288 85.1289 28.9898C84.8853 28.9486 84.6786 28.8663 84.5112 28.7384C84.3415 28.6128 84.211 28.4416 84.1197 28.227C84.0261 28.0082 83.9805 27.7221 83.9805 27.3689V22.3329C83.9805 21.9125 83.85 21.6048 83.589 21.4141C83.328 21.2234 83.0148 21.128 82.6494 21.128C82.3927 21.128 82.173 21.1692 81.9882 21.2494C81.8077 21.3252 81.6532 21.3967 81.5271 21.4661V28.8685C81.3879 28.9075 81.1639 28.9486 80.8572 28.9898C80.5549 29.0288 80.2417 29.0505 79.9176 29.0505C79.6087 29.0505 79.3303 29.0288 79.0824 28.9898C78.8323 28.9486 78.6235 28.8663 78.456 28.7384C78.2863 28.6128 78.1558 28.4416 78.0645 28.227C77.971 28.0082 77.9253 27.7221 77.9253 27.3689V20.998C77.9253 20.6231 78.0058 20.3219 78.1689 20.0966C78.3298 19.8712 78.5539 19.661 78.8388 19.4638C79.3195 19.1301 79.9132 18.857 80.6223 18.649C81.3357 18.4367 82.0795 18.3283 82.8582 18.3283Z" fill="#77AD78"/>
<path d="M95.8213 18.7878C95.9648 18.7488 96.1889 18.7076 96.4912 18.6664C96.7913 18.6209 97.1045 18.5971 97.4308 18.5971C97.744 18.5971 98.0224 18.6209 98.266 18.6664C98.5139 18.7076 98.7227 18.7921 98.8924 18.9178C99.0599 19.0456 99.1903 19.219 99.2839 19.4379C99.3752 19.6524 99.4231 19.9363 99.4231 20.2873V24.8206C99.4231 25.3927 99.5623 25.8044 99.8407 26.0515C100.123 26.2942 100.537 26.4155 101.076 26.4155C101.4 26.4155 101.663 26.3895 101.868 26.3375C102.07 26.2812 102.229 26.2226 102.346 26.1641V18.7878C102.485 18.7488 102.705 18.7076 103.007 18.6664C103.308 18.6209 103.621 18.5971 103.947 18.5971C104.26 18.5971 104.539 18.6209 104.782 18.6664C105.03 18.7076 105.239 18.7921 105.409 18.9178C105.576 19.0456 105.707 19.219 105.8 19.4379C105.891 19.6524 105.939 19.9363 105.939 20.2873V26.6929C105.939 27.3993 105.644 27.9237 105.052 28.2704C104.558 28.5825 103.969 28.8208 103.286 28.9812C102.601 29.1416 101.855 29.2239 101.05 29.2239C100.289 29.2239 99.5884 29.1394 98.9446 28.9725C98.3051 28.8057 97.7527 28.5456 97.2829 28.1924C96.8174 27.8414 96.4586 27.3863 96.2041 26.8316C95.9474 26.2768 95.8213 25.6072 95.8213 24.8206V18.7878Z" fill="#77AD78"/>
<path d="M114.658 22.3935C114.658 21.9602 114.532 21.6438 114.284 21.4401C114.034 21.232 113.696 21.128 113.274 21.128C112.996 21.128 112.718 21.1627 112.439 21.232C112.165 21.3014 111.93 21.4097 111.735 21.5528V28.8685C111.595 28.9075 111.371 28.9486 111.065 28.9898C110.762 29.0288 110.449 29.0505 110.125 29.0505C109.816 29.0505 109.538 29.0288 109.29 28.9898C109.04 28.9486 108.831 28.8663 108.664 28.7384C108.494 28.6128 108.363 28.4416 108.272 28.227C108.178 28.0082 108.133 27.7221 108.133 27.3689V21.0414C108.133 20.6665 108.213 20.3609 108.376 20.1226C108.537 19.8799 108.761 19.661 109.046 19.4638C109.527 19.1301 110.129 18.857 110.856 18.649C111.58 18.4367 112.387 18.3283 113.274 18.3283C114.869 18.3283 116.095 18.675 116.955 19.3685C117.818 20.0619 118.251 21.0284 118.251 22.2635V28.8685C118.112 28.9075 117.888 28.9486 117.581 28.9898C117.279 29.0288 116.965 29.0505 116.641 29.0505C116.333 29.0505 116.054 29.0288 115.806 28.9898C115.563 28.9486 115.354 28.8663 115.18 28.7384C115.01 28.6128 114.88 28.4416 114.788 28.227C114.701 28.0082 114.658 27.7221 114.658 27.3689V22.3935Z" fill="#77AD78"/>
<path d="M125.903 29.2238C125.072 29.2238 124.302 29.1068 123.589 28.8771C122.876 28.6474 122.254 28.3007 121.727 27.837C121.199 27.3689 120.781 26.786 120.474 26.0861C120.172 25.3818 120.022 24.5584 120.022 23.6157C120.022 22.6861 120.172 21.8886 120.474 21.2234C120.781 20.5538 121.181 20.0055 121.675 19.5765C122.167 19.1496 122.73 18.8354 123.363 18.6317C124 18.4302 124.65 18.3283 125.312 18.3283C126.06 18.3283 126.741 18.441 127.356 18.6664C127.969 18.8874 128.498 19.1951 128.939 19.5938C129.385 19.9882 129.731 20.4584 129.975 21.0067C130.223 21.5506 130.349 22.1465 130.349 22.7923C130.349 23.2733 130.214 23.6396 129.949 23.8931C129.681 24.1423 129.307 24.3048 128.826 24.3785L123.598 25.1586C123.754 25.6223 124.072 25.969 124.555 26.1987C125.035 26.4306 125.586 26.5455 126.208 26.5455C126.782 26.5455 127.326 26.474 127.843 26.3288C128.359 26.1792 128.778 26.0059 129.105 25.8087C129.331 25.9474 129.518 26.1446 129.67 26.3981C129.827 26.6538 129.905 26.9182 129.905 27.1956C129.905 27.8326 129.609 28.3029 129.018 28.6084C128.565 28.8511 128.056 29.0115 127.495 29.0938C126.932 29.1805 126.401 29.2238 125.903 29.2238ZM125.312 20.9373C124.974 20.9373 124.681 20.9958 124.433 21.1107C124.189 21.2212 123.989 21.3664 123.833 21.5441C123.676 21.7175 123.559 21.9146 123.485 22.1335C123.408 22.348 123.363 22.5669 123.345 22.7923L126.965 22.2029C126.923 21.9211 126.767 21.6394 126.495 21.3621C126.227 21.0804 125.834 20.9373 125.312 20.9373Z" fill="#77AD78"/>
<path d="M137.517 29.2238C136.686 29.2238 135.916 29.1068 135.203 28.8771C134.489 28.6474 133.867 28.3007 133.341 27.837C132.812 27.3689 132.395 26.786 132.088 26.0861C131.786 25.3818 131.636 24.5584 131.636 23.6157C131.636 22.6861 131.786 21.8886 132.088 21.2234C132.395 20.5538 132.795 20.0055 133.289 19.5765C133.78 19.1496 134.344 18.8354 134.977 18.6317C135.614 18.4302 136.264 18.3283 136.925 18.3283C137.674 18.3283 138.354 18.441 138.97 18.6664C139.583 18.8874 140.112 19.1951 140.553 19.5938C140.999 19.9882 141.345 20.4584 141.589 21.0067C141.836 21.5506 141.963 22.1465 141.963 22.7923C141.963 23.2733 141.828 23.6396 141.562 23.8931C141.295 24.1423 140.921 24.3048 140.44 24.3785L135.211 25.1586C135.368 25.6223 135.686 25.969 136.168 26.1987C136.649 26.4306 137.199 26.5455 137.821 26.5455C138.396 26.5455 138.939 26.474 139.457 26.3288C139.972 26.1792 140.392 26.0059 140.719 25.8087C140.945 25.9474 141.132 26.1446 141.284 26.3981C141.441 26.6538 141.519 26.9182 141.519 27.1956C141.519 27.8326 141.223 28.3029 140.632 28.6084C140.179 28.8511 139.67 29.0115 139.109 29.0938C138.546 29.1805 138.015 29.2238 137.517 29.2238ZM136.925 20.9373C136.588 20.9373 136.295 20.9958 136.047 21.1107C135.803 21.2212 135.603 21.3664 135.446 21.5441C135.29 21.7175 135.172 21.9146 135.098 22.1335C135.022 22.348 134.977 22.5669 134.959 22.7923L138.578 22.2029C138.537 21.9211 138.38 21.6394 138.109 21.3621C137.841 21.0804 137.447 20.9373 136.925 20.9373Z" fill="#77AD78"/>
<path d="M72.1781 37.2588H74.5445C75.1644 37.2588 75.695 37.3628 76.1366 37.5709C76.5759 37.7789 76.9109 38.0736 77.1371 38.455C77.3676 38.8364 77.4851 39.2828 77.4851 39.7898C77.4851 40.5136 77.3241 41.1507 77.0066 41.7054C76.6868 42.2602 76.2344 42.6936 75.6494 43.0056C75.0621 43.3177 74.3835 43.4737 73.6136 43.4737H70.9253L72.1781 37.2588ZM73.631 42.9016C74.2748 42.9016 74.8359 42.7716 75.3188 42.5116C75.806 42.2472 76.1757 41.8831 76.4324 41.4194C76.6934 40.9513 76.8239 40.4183 76.8239 39.8158C76.8239 39.2048 76.6238 38.7215 76.2236 38.3683C75.8277 38.0108 75.2448 37.8309 74.4749 37.8309H72.7088L71.6996 42.9016H73.631Z" fill="#E0E0E0"/>
<path d="M80.2394 43.517C79.8088 43.517 79.4325 43.4368 79.1084 43.2743C78.7887 43.1139 78.5429 42.8821 78.3689 42.5809C78.1949 42.2818 78.1079 41.9351 78.1079 41.5407C78.1079 41.0163 78.2232 40.5417 78.4559 40.1192C78.6865 39.6988 79.0084 39.3694 79.4216 39.131C79.8327 38.8883 80.296 38.767 80.8136 38.767C81.4683 38.767 81.9881 38.9469 82.3709 39.3044C82.7537 39.6576 82.9451 40.1365 82.9451 40.7433C82.9451 41.2699 82.8276 41.7444 82.5971 42.1648C82.3644 42.5874 82.0425 42.9189 81.6314 43.1616C81.2181 43.4 80.7549 43.517 80.2394 43.517ZM80.2829 42.9623C80.6657 42.9623 81.0093 42.8712 81.3182 42.6849C81.6314 42.4942 81.875 42.232 82.049 41.8961C82.223 41.5624 82.31 41.1897 82.31 40.7779C82.31 40.3229 82.173 39.9675 81.9011 39.7118C81.6336 39.4518 81.2573 39.3217 80.7701 39.3217C80.3873 39.3217 80.0393 39.4171 79.7261 39.6078C79.4173 39.7941 79.178 40.0542 79.004 40.3879C78.83 40.7238 78.743 41.0987 78.743 41.5147C78.743 41.9719 78.8757 42.3273 79.1432 42.5809C79.4151 42.8366 79.7957 42.9623 80.2829 42.9623Z" fill="#E0E0E0"/>
<path d="M85.8587 43.517C85.4172 43.517 85.0322 43.4368 84.7016 43.2743C84.3753 43.1139 84.1274 42.8821 83.9534 42.5809C83.7794 42.2818 83.6924 41.9351 83.6924 41.5407C83.6924 41.0163 83.8077 40.5417 84.0404 40.1192C84.2709 39.6988 84.5928 39.3694 85.0061 39.131C85.4237 38.8883 85.8935 38.767 86.4155 38.767C86.8505 38.767 87.2246 38.8493 87.5378 39.0097C87.851 39.1657 88.0902 39.3976 88.2599 39.7031L87.7292 40.0152C87.4616 39.5536 87.0071 39.3217 86.3633 39.3217C85.9805 39.3217 85.6325 39.4171 85.3193 39.6078C85.0061 39.7941 84.7625 40.0542 84.5885 40.3879C84.4145 40.7173 84.3275 41.0943 84.3275 41.5147C84.3275 41.9719 84.4602 42.3273 84.7277 42.5809C84.9996 42.8366 85.3845 42.9623 85.8848 42.9623C86.1849 42.9623 86.4633 42.9059 86.72 42.7889C86.981 42.674 87.1941 42.5072 87.3638 42.2862L87.8162 42.6329C87.6074 42.9102 87.329 43.1269 86.981 43.283C86.633 43.439 86.2589 43.517 85.8587 43.517Z" fill="#E0E0E0"/>
<path d="M93.9097 38.8017L92.9788 43.4737H92.3698L92.5177 42.7282C92.0827 43.2548 91.478 43.517 90.7081 43.517C90.1861 43.517 89.7772 43.3848 89.4814 43.1183C89.1899 42.8474 89.0464 42.4725 89.0464 41.9915C89.0464 41.8246 89.0638 41.6513 89.0986 41.4714L89.638 38.8017H90.2644L89.7337 41.4714C89.7032 41.6339 89.6902 41.7726 89.6902 41.8875C89.6902 42.2298 89.7881 42.492 89.986 42.6762C90.1817 42.8626 90.4819 42.9536 90.8821 42.9536C91.3802 42.9536 91.7912 42.8149 92.1175 42.5376C92.4481 42.2558 92.6677 41.8485 92.7787 41.3154L93.2746 38.8017H93.9097Z" fill="#E0E0E0"/>
<path d="M101.409 38.767C101.935 38.767 102.344 38.9014 102.635 39.1657C102.925 39.4258 103.07 39.7941 103.07 40.2665C103.07 40.4052 103.047 40.5916 103.001 40.8213L102.47 43.4737H101.835L102.374 40.8126C102.403 40.6739 102.418 40.5309 102.418 40.3792C102.418 40.0455 102.318 39.7876 102.122 39.6078C101.924 39.4301 101.637 39.3391 101.261 39.3391C100.785 39.3391 100.387 39.4734 100.069 39.7378C99.7558 39.9978 99.547 40.3857 99.4426 40.8993L98.9206 43.4737H98.2942L98.8249 40.8126C98.8532 40.6458 98.8684 40.5049 98.8684 40.3879C98.8684 40.0477 98.7727 39.7876 98.5813 39.6078C98.3899 39.4301 98.0985 39.3391 97.7113 39.3391C97.2285 39.3391 96.8326 39.4778 96.5194 39.7551C96.2062 40.0282 95.9909 40.4312 95.8756 40.9686L95.3797 43.4737H94.7446L95.6755 38.8017H96.2758L96.1279 39.5471C96.5564 39.027 97.148 38.767 97.9027 38.767C98.2899 38.767 98.6161 38.8493 98.8771 39.0097C99.1425 39.1722 99.3295 39.4041 99.4339 39.7031C99.6645 39.3976 99.9472 39.1657 100.278 39.0097C100.613 38.8493 100.991 38.767 101.409 38.767Z" fill="#E0E0E0"/>
<path d="M104.786 41.3154C104.779 41.3565 104.777 41.4194 104.777 41.506C104.777 41.9806 104.91 42.3425 105.177 42.5895C105.449 42.8387 105.852 42.9623 106.387 42.9623C106.693 42.9623 106.981 42.9102 107.248 42.8062C107.52 42.7022 107.744 42.5592 107.918 42.3728L108.205 42.8236C107.983 43.0446 107.709 43.2136 107.379 43.335C107.048 43.4563 106.7 43.517 106.335 43.517C105.656 43.517 105.121 43.3415 104.734 42.9883C104.344 42.6307 104.151 42.1453 104.151 41.5321C104.151 41.012 104.26 40.5417 104.481 40.1192C104.708 39.6988 105.017 39.3694 105.412 39.131C105.806 38.8883 106.25 38.767 106.743 38.767C107.37 38.767 107.866 38.9447 108.231 39.2957C108.597 39.649 108.779 40.1344 108.779 40.7519C108.779 40.921 108.758 41.1073 108.718 41.3154H104.786ZM106.726 39.3044C106.256 39.3044 105.852 39.4431 105.517 39.7205C105.186 39.9978 104.962 40.3749 104.847 40.8473H108.188C108.192 40.8083 108.196 40.7498 108.196 40.6739C108.196 40.2405 108.062 39.9068 107.796 39.6685C107.529 39.4258 107.172 39.3044 106.726 39.3044Z" fill="#E0E0E0"/>
<path d="M112.793 38.767C113.319 38.767 113.728 38.9035 114.019 39.1744C114.315 39.4409 114.463 39.8115 114.463 40.2839C114.463 40.4529 114.446 40.6306 114.411 40.8213L113.88 43.4737H113.245L113.776 40.8126C113.811 40.6458 113.828 40.5049 113.828 40.3879C113.828 40.0477 113.724 39.7876 113.515 39.6078C113.31 39.4301 113.01 39.3391 112.61 39.3391C112.105 39.3391 111.69 39.4778 111.366 39.7551C111.04 40.0282 110.82 40.4312 110.705 40.9686L110.209 43.4737H109.574L110.505 38.8017H111.105L110.957 39.5471C111.403 39.027 112.014 38.767 112.793 38.767Z" fill="#E0E0E0"/>
<path d="M116.622 42.0608C116.598 42.206 116.587 42.3035 116.587 42.3555C116.587 42.7715 116.813 42.9796 117.266 42.9796C117.531 42.9796 117.772 42.8994 117.988 42.7369L118.136 43.2136C117.868 43.4173 117.52 43.517 117.092 43.517C116.744 43.517 116.465 43.426 116.257 43.2396C116.052 43.0489 115.952 42.7867 115.952 42.4508C115.952 42.3251 115.963 42.2038 115.987 42.0868L116.535 39.3391H115.7L115.804 38.8016H116.639L116.839 37.7875H117.474L117.274 38.8016H118.692L118.588 39.3391H117.161L116.622 42.0608Z" fill="#E0E0E0"/>
<path d="M121.308 43.517C120.877 43.517 120.501 43.4368 120.177 43.2743C119.857 43.1139 119.611 42.8821 119.437 42.5809C119.263 42.2818 119.176 41.9351 119.176 41.5407C119.176 41.0163 119.292 40.5417 119.524 40.1192C119.755 39.6988 120.077 39.3694 120.49 39.131C120.901 38.8883 121.364 38.767 121.882 38.767C122.537 38.767 123.056 38.9469 123.439 39.3044C123.822 39.6576 124.013 40.1365 124.013 40.7433C124.013 41.2699 123.896 41.7444 123.665 42.1648C123.433 42.5874 123.111 42.9189 122.7 43.1616C122.287 43.4 121.823 43.517 121.308 43.517ZM121.351 42.9623C121.734 42.9623 122.078 42.8712 122.387 42.6849C122.7 42.4942 122.943 42.232 123.117 41.8961C123.291 41.5624 123.378 41.1897 123.378 40.7779C123.378 40.3229 123.241 39.9675 122.969 39.7118C122.702 39.4518 122.326 39.3217 121.838 39.3217C121.456 39.3217 121.108 39.4171 120.794 39.6078C120.486 39.7941 120.246 40.0542 120.072 40.3879C119.898 40.7238 119.811 41.0987 119.811 41.5147C119.811 41.9719 119.944 42.3273 120.212 42.5809C120.483 42.8366 120.864 42.9623 121.351 42.9623Z" fill="#E0E0E0"/>
<path d="M128.521 37.2588H130.887C131.507 37.2588 132.038 37.3628 132.479 37.5709C132.919 37.7789 133.254 38.0736 133.48 38.455C133.71 38.8364 133.828 39.2828 133.828 39.7898C133.828 40.5136 133.667 41.1507 133.349 41.7054C133.03 42.2602 132.577 42.6936 131.992 43.0056C131.405 43.3177 130.726 43.4737 129.956 43.4737H127.268L128.521 37.2588ZM129.974 42.9016C130.618 42.9016 131.179 42.7716 131.662 42.5116C132.149 42.2472 132.518 41.8831 132.775 41.4194C133.036 40.9513 133.167 40.4183 133.167 39.8158C133.167 39.2048 132.967 38.7215 132.566 38.3683C132.17 38.0108 131.588 37.8309 130.818 37.8309H129.052L128.042 42.9016H129.974Z" fill="#E0E0E0"/>
<path d="M135.426 38.8017H136.052L135.13 43.4737H134.495L135.426 38.8017ZM136.009 37.7876C135.881 37.7876 135.776 37.7486 135.696 37.6662C135.62 37.5796 135.583 37.4799 135.583 37.3629C135.583 37.2307 135.626 37.118 135.713 37.0248C135.804 36.9338 135.924 36.8861 136.07 36.8861C136.192 36.8861 136.292 36.9273 136.374 37.0075C136.461 37.0898 136.505 37.1808 136.505 37.2849C136.505 37.43 136.455 37.5514 136.357 37.6489C136.263 37.7421 136.148 37.7876 136.009 37.7876Z" fill="#E0E0E0"/>
<path d="M142.163 38.8017L141.345 42.9016C141.182 43.7207 140.88 44.3166 140.44 44.6872C139.999 45.0555 139.392 45.2419 138.622 45.2419C138.181 45.2419 137.783 45.1812 137.43 45.0599C137.076 44.9385 136.778 44.7652 136.534 44.5398L136.908 44.0631C137.1 44.2538 137.345 44.4033 137.648 44.5138C137.954 44.6222 138.294 44.6785 138.666 44.6785C139.251 44.6785 139.705 44.542 140.032 44.2711C140.362 43.9981 140.582 43.5798 140.693 43.0143L140.806 42.4942C140.58 42.7499 140.306 42.9493 139.988 43.0923C139.668 43.231 139.318 43.3003 138.935 43.3003C138.309 43.3003 137.807 43.1334 137.43 42.7976C137.052 42.4574 136.865 41.9958 136.865 41.4107C136.865 40.9145 136.978 40.4659 137.204 40.0672C137.435 39.6641 137.754 39.3456 138.161 39.1137C138.566 38.884 139.025 38.767 139.536 38.767C139.982 38.767 140.364 38.8602 140.684 39.0444C141.008 39.2242 141.234 39.4864 141.363 39.8331L141.563 38.8017H142.163ZM139.057 42.7369C139.444 42.7369 139.792 42.6502 140.101 42.4769C140.414 42.2992 140.658 42.0521 140.832 41.7401C141.006 41.4237 141.093 41.0683 141.093 40.6739C141.093 40.2535 140.956 39.9242 140.684 39.6858C140.41 39.4431 140.032 39.3217 139.544 39.3217C139.155 39.3217 138.805 39.4128 138.492 39.5904C138.183 39.7638 137.944 40.0108 137.77 40.3272C137.596 40.6393 137.509 40.9903 137.509 41.376C137.509 41.8051 137.643 42.1388 137.917 42.3815C138.189 42.6199 138.57 42.7369 139.057 42.7369Z" fill="#E0E0E0"/>
<path d="M143.931 38.8017H144.558L143.636 43.4737H143L143.931 38.8017ZM144.514 37.7876C144.386 37.7876 144.282 37.7486 144.201 37.6662C144.125 37.5796 144.088 37.4799 144.088 37.3629C144.088 37.2307 144.131 37.118 144.218 37.0248C144.31 36.9338 144.429 36.8861 144.575 36.8861C144.697 36.8861 144.797 36.9273 144.88 37.0075C144.967 37.0898 145.01 37.1808 145.01 37.2849C145.01 37.43 144.96 37.5514 144.862 37.6489C144.769 37.7421 144.653 37.7876 144.514 37.7876Z" fill="#E0E0E0"/>
<path d="M146.414 42.0608C146.39 42.206 146.38 42.3035 146.38 42.3555C146.38 42.7715 146.606 42.9796 147.058 42.9796C147.324 42.9796 147.565 42.8994 147.78 42.7369L147.928 43.2136C147.661 43.4173 147.313 43.517 146.884 43.517C146.536 43.517 146.258 43.426 146.049 43.2396C145.845 43.0489 145.744 42.7867 145.744 42.4508C145.744 42.3251 145.755 42.2038 145.779 42.0868L146.327 39.3391H145.492L145.597 38.8016H146.432L146.632 37.7875H147.267L147.067 38.8016H148.485L148.381 39.3391H146.954L146.414 42.0608Z" fill="#E0E0E0"/>
<path d="M154.224 38.8017L153.293 43.4737H152.684L152.832 42.7369C152.61 42.9861 152.345 43.179 152.032 43.3176C151.723 43.452 151.383 43.517 151.014 43.517C150.614 43.517 150.257 43.439 149.944 43.283C149.635 43.1226 149.396 42.8907 149.222 42.5895C149.052 42.2905 148.969 41.9394 148.969 41.5407C148.969 41.0163 149.082 40.5417 149.309 40.1192C149.539 39.6988 149.857 39.3694 150.257 39.131C150.661 38.8883 151.114 38.767 151.614 38.767C152.06 38.767 152.434 38.858 152.736 39.0357C153.036 39.2091 153.258 39.4583 153.398 39.7811L153.589 38.8017H154.224ZM151.144 42.9623C151.527 42.9623 151.871 42.8712 152.18 42.6849C152.493 42.4942 152.736 42.232 152.91 41.8961C153.084 41.5624 153.171 41.1897 153.171 40.7779C153.171 40.3229 153.034 39.9675 152.762 39.7118C152.495 39.4518 152.119 39.3217 151.631 39.3217C151.249 39.3217 150.901 39.4171 150.587 39.6078C150.279 39.7941 150.039 40.0542 149.865 40.3879C149.691 40.7238 149.604 41.0987 149.604 41.5147C149.604 41.9719 149.737 42.3273 150.005 42.5809C150.276 42.8366 150.657 42.9623 151.144 42.9623Z" fill="#E0E0E0"/>
<path d="M156.374 36.8861H157L155.686 43.4737H155.051L156.374 36.8861Z" fill="#E0E0E0"/>
</svg>
