<svg width="30" height="31" viewBox="0 0 30 31" fill="none" xmlns="http://www.w3.org/2000/svg">
<path d="M15 25.7588L14.6466 25.4058L8.89661 19.6621L9.24997 19.3083L8.8966 19.6621C7.99696 18.7634 7.30778 17.6767 6.87866 16.4801C6.44955 15.2836 6.29114 14.0069 6.41484 12.7419L15 25.7588ZM15 25.7588L15.3533 25.4058M15 25.7588L15.3533 25.4058M15.3533 25.4058L21.1032 19.6622C21.1032 19.6622 21.1033 19.6621 21.1033 19.6621C22.0066 18.7605 22.6978 17.6694 23.1271 16.468C23.5563 15.2665 23.7127 13.9847 23.585 12.7154C23.4567 11.4365 23.0465 10.2019 22.3839 9.10016C21.7212 7.99841 20.8225 7.057 19.7523 6.34352L19.7514 6.34292C18.3433 5.40853 16.6904 4.91013 15 4.91013C13.3095 4.91013 11.6567 5.40853 10.2485 6.34291L10.2474 6.34363M15.3533 25.4058L10.2474 6.34363M10.2474 6.34363C9.17405 7.05988 8.27335 8.00547 7.6105 9.11206C6.94773 10.2185 6.53932 11.4583 6.41485 12.7418L10.2474 6.34363ZM25.077 12.6483L25.0829 12.648C25.2183 14.1153 25.0294 15.5946 24.5294 16.9814C24.0227 18.3867 23.2092 19.6616 22.1479 20.7138L22.1456 20.7162L15.5456 27.3464L15.5452 27.3469C15.4755 27.4171 15.3925 27.4728 15.3011 27.5109C15.2097 27.5489 15.1116 27.5685 15.0125 27.5685C14.9134 27.5685 14.8153 27.5489 14.7239 27.5109C14.6324 27.4728 14.5495 27.4171 14.4798 27.3469L14.4787 27.3458L7.85367 20.7155L7.852 20.7139C6.7907 19.6616 5.97722 18.3867 5.47054 16.9814C4.9639 15.5763 4.77672 14.0762 4.92255 12.5898C5.0714 11.0929 5.55028 9.64737 6.32484 8.35717C7.09927 7.06717 8.15008 5.96442 9.40183 5.12813C10.8627 4.16154 12.5498 3.59019 14.2981 3.47002C16.0467 3.34982 17.7966 3.68511 19.3766 4.44305C20.9566 5.20099 22.3124 6.35561 23.3116 7.79388C24.3108 9.23214 24.9191 10.9048 25.077 12.6483ZM15.6745 10.1233L15.6916 10.1758L15.7197 10.2233C15.7367 10.2519 15.7477 10.2835 15.7522 10.3163C15.7556 10.3664 15.7554 10.4167 15.7515 10.4668L15.75 10.4856L15.75 10.5045C15.7498 10.6044 15.7296 10.7032 15.6905 10.7952C15.6519 10.8843 15.5988 10.9664 15.5335 11.0383C15.4594 11.1059 15.3753 11.1618 15.2843 11.2041C15.099 11.2709 14.896 11.2703 14.711 11.2024C14.6217 11.1636 14.5401 11.1093 14.4698 11.042C14.4027 10.9689 14.3483 10.8851 14.309 10.7941L14.3091 10.794L14.3043 10.7836C14.2661 10.7005 14.2474 10.6098 14.2498 10.5184L14.2502 10.5028L14.2496 10.4873C14.2469 10.4111 14.2525 10.3349 14.2665 10.26L14.2686 10.2489L14.2701 10.2377C14.274 10.2103 14.2824 10.1836 14.295 10.1589L14.3131 10.1236L14.3254 10.0858C14.3323 10.0648 14.3425 10.0451 14.3558 10.0275L14.4742 9.87968L14.5797 9.78839L14.6429 9.75681H14.75H14.806L14.8606 9.74443C14.9811 9.7171 15.1064 9.71991 15.2256 9.7526C15.3351 9.78265 15.4362 9.83709 15.5213 9.91163L15.6441 10.0649C15.6574 10.0826 15.6677 10.1023 15.6745 10.1233ZM14.4695 13.7222C14.6101 13.5817 14.8009 13.5027 15 13.5027C15.1991 13.5027 15.3899 13.5817 15.5305 13.7222C15.6711 13.8626 15.75 14.053 15.75 14.2514V16.7486C15.75 16.947 15.6711 17.1374 15.5305 17.2778C15.3899 17.4183 15.1991 17.4973 15 17.4973C14.8009 17.4973 14.6101 17.4183 14.4695 17.2778C14.3289 17.1374 14.25 16.947 14.25 16.7486V14.2514C14.25 14.053 14.3289 13.8626 14.4695 13.7222Z" fill="white" stroke="white"/>
</svg>
