<svg width="30" height="31" viewBox="0 0 30 31" fill="none" xmlns="http://www.w3.org/2000/svg">
<path d="M3.875 15.0006C4 14.8757 4 14.7508 4.125 14.626L7.875 10.8801C8.375 10.3806 9.125 10.3806 9.625 10.8801C10.125 11.3795 10.125 12.1287 9.625 12.6281L8 14.2514H13.75C14.5 14.2514 15 14.7508 15 15.5C15 16.2492 14.5 16.7486 13.75 16.7486H8L9.625 18.3719C10.125 18.8713 10.125 19.6205 9.625 20.12C9.375 20.3697 9 20.4946 8.75 20.4946C8.5 20.4946 8.125 20.3697 7.875 20.12L4.125 16.3741C4 16.2492 3.875 16.1243 3.875 15.9995C3.75 15.6249 3.75 15.3751 3.875 15.0006Z" fill="#CC3334"/>
<path d="M10.625 23.1167C12 23.8659 13.5 24.2405 15 24.2405C19.875 24.2405 23.75 20.3697 23.75 15.5C23.75 10.6303 19.875 6.75954 15 6.75954C13.5 6.75954 12 7.13413 10.625 7.88332C10 8.25791 9.25 8.00818 8.875 7.38386C8.5 6.75954 8.75 6.01036 9.375 5.63577C11.125 4.76172 13 4.26227 15 4.26227C21.25 4.26227 26.25 9.25682 26.25 15.5C26.25 21.7432 21.25 26.7377 15 26.7377C13 26.7377 11.125 26.2383 9.375 25.2394C8.75 24.8648 8.625 24.1156 8.875 23.4913C9.25 22.9918 10 22.7421 10.625 23.1167Z" fill="#CC3334"/>
</svg>
