<svg width="157" height="57" viewBox="0 0 157 57" fill="none" xmlns="http://www.w3.org/2000/svg">
<mask id="mask0_373_1100" style="mask-type:luminance" maskUnits="userSpaceOnUse" x="18" y="18" width="40" height="39">
<path d="M18.9315 18.7746H57.2114V57H18.9315V18.7746Z" fill="white"/>
</mask>
<g mask="url(#mask0_373_1100)">
<path d="M54.7819 19.1972C46.356 19.1972 38.2694 22.5061 32.2773 28.4111L28.7973 31.8393C22.6986 37.8461 19.2665 46.0373 19.2665 54.5816C19.2665 55.9165 20.354 57 21.6959 57H35.5158C36.8578 57 37.9453 55.9187 37.9453 54.5816V42.1129C37.9453 39.7336 39.881 37.805 42.2692 37.805H54.7841C56.1239 37.805 57.2136 36.7215 57.2136 35.3844V21.6155C57.2114 20.2807 56.1239 19.1972 54.7819 19.1972Z" fill="#77AD78"/>
</g>
<path d="M43.5305 14.8893H44.4636C47.6478 14.8893 50.2273 12.3171 50.2273 9.14679V8.21499C50.2273 7.42188 49.5835 6.78046 48.7853 6.78046H47.8522C44.668 6.78046 42.0885 9.35048 42.0885 12.5229V13.4526C42.0885 14.2457 42.7345 14.8893 43.5305 14.8893Z" fill="#77AD78"/>
<mask id="mask1_373_1100" style="mask-type:luminance" maskUnits="userSpaceOnUse" x="0" y="0" width="39" height="39">
<path d="M0 0H38.419V38.1907H0V0Z" fill="white"/>
</mask>
<g mask="url(#mask1_373_1100)">
<path d="M35.5154 0H21.6955C20.3536 0 19.2661 1.08349 19.2661 2.42051V14.8893C19.2661 17.2686 17.3303 19.1972 14.9422 19.1972H2.42946C1.0875 19.1972 0 20.2807 0 21.6155V35.3845C0 36.7215 1.0875 37.805 2.42946 37.805C10.8554 37.805 18.942 34.4938 24.9341 28.591L28.4141 25.1629C34.5128 19.1539 37.9449 10.9649 37.9449 2.42051C37.9449 1.08349 36.8574 0 35.5154 0Z" fill="#A6C72A"/>
</g>
<path d="M14.4379 41.3935H13.5027C10.3185 41.3935 7.73895 43.9657 7.73895 47.1381V48.0678C7.73895 48.8609 8.38493 49.5045 9.18097 49.5045H10.114C13.2982 49.5045 15.8778 46.9323 15.8778 43.762V42.8302C15.8778 42.0371 15.2318 41.3935 14.4379 41.3935Z" fill="#A6C72A"/>
<path d="M75.4578 28.7991C75.3012 28.8468 75.0576 28.888 74.727 28.9291C74.3964 28.9681 74.068 28.9898 73.7439 28.9898C73.4176 28.9898 73.1305 28.9638 72.8826 28.9118C72.639 28.8663 72.4302 28.7796 72.2562 28.6518C72.0865 28.5261 71.9604 28.3527 71.8734 28.1317C71.7907 27.9063 71.7516 27.6095 71.7516 27.2389V16.1093C71.9082 16.0812 72.154 16.0443 72.4911 15.9967C72.8326 15.9446 73.1566 15.9186 73.4655 15.9186C73.7896 15.9186 74.0745 15.9446 74.3181 15.9967C74.566 16.0443 74.7748 16.131 74.9445 16.2567C75.1119 16.3845 75.2403 16.5601 75.3273 16.7854C75.4143 17.0108 75.4578 17.3055 75.4578 17.6696V28.7991Z" fill="#77AD78"/>
<path d="M82.8582 18.3283C83.4367 18.3283 84.0066 18.4107 84.5634 18.571C85.1202 18.7335 85.6008 18.9741 86.0076 19.2904C86.4295 19.0131 86.9058 18.7855 87.4344 18.6057C87.9672 18.4215 88.6088 18.3283 89.357 18.3283C89.8899 18.3283 90.4141 18.3977 90.9317 18.5363C91.4472 18.675 91.9061 18.8982 92.3063 19.2038C92.7065 19.505 93.0241 19.9037 93.2633 20.3999C93.5069 20.8983 93.6287 21.5051 93.6287 22.2202V28.8685C93.4895 28.9075 93.2655 28.9486 92.9588 28.9898C92.6565 29.0288 92.3433 29.0505 92.0192 29.0505C91.7104 29.0505 91.432 29.0288 91.184 28.9898C90.9404 28.9486 90.7316 28.8663 90.5576 28.7384C90.388 28.6128 90.2575 28.4416 90.1661 28.227C90.0791 28.0082 90.0356 27.7221 90.0356 27.3689V22.3329C90.0356 21.9125 89.9138 21.6048 89.6702 21.4141C89.431 21.2234 89.1069 21.128 88.6958 21.128C88.4979 21.128 88.287 21.1757 88.0608 21.2667C87.8346 21.3599 87.6649 21.4552 87.5562 21.5528C87.567 21.6048 87.5736 21.6568 87.5736 21.7088C87.5736 21.7565 87.5736 21.802 87.5736 21.8475V28.8685C87.4213 28.9075 87.1929 28.9486 86.8863 28.9898C86.5839 29.0288 86.2794 29.0505 85.9728 29.0505C85.6596 29.0505 85.3768 29.0288 85.1289 28.9898C84.8853 28.9486 84.6786 28.8663 84.5112 28.7384C84.3415 28.6128 84.211 28.4416 84.1197 28.227C84.0261 28.0082 83.9805 27.7221 83.9805 27.3689V22.3329C83.9805 21.9125 83.85 21.6048 83.589 21.4141C83.328 21.2234 83.0148 21.128 82.6494 21.128C82.3927 21.128 82.173 21.1692 81.9882 21.2494C81.8077 21.3252 81.6532 21.3967 81.5271 21.4661V28.8685C81.3879 28.9075 81.1639 28.9486 80.8572 28.9898C80.5549 29.0288 80.2417 29.0505 79.9176 29.0505C79.6087 29.0505 79.3303 29.0288 79.0824 28.9898C78.8323 28.9486 78.6235 28.8663 78.456 28.7384C78.2863 28.6128 78.1558 28.4416 78.0645 28.227C77.971 28.0082 77.9253 27.7221 77.9253 27.3689V20.998C77.9253 20.6231 78.0058 20.3219 78.1689 20.0966C78.3298 19.8712 78.5539 19.661 78.8388 19.4638C79.3195 19.1301 79.9132 18.857 80.6223 18.649C81.3357 18.4367 82.0795 18.3283 82.8582 18.3283Z" fill="#77AD78"/>
<path d="M95.8214 18.7878C95.965 18.7488 96.189 18.7076 96.4913 18.6664C96.7915 18.6209 97.1047 18.5971 97.4309 18.5971C97.7441 18.5971 98.0225 18.6209 98.2661 18.6664C98.5141 18.7076 98.7228 18.7921 98.8925 18.9178C99.06 19.0456 99.1905 19.219 99.284 19.4379C99.3753 19.6524 99.4232 19.9363 99.4232 20.2873V24.8206C99.4232 25.3927 99.5624 25.8044 99.8408 26.0515C100.124 26.2942 100.537 26.4155 101.076 26.4155C101.4 26.4155 101.663 26.3895 101.868 26.3375C102.07 26.2812 102.229 26.2226 102.346 26.1641V18.7878C102.486 18.7488 102.705 18.7076 103.008 18.6664C103.308 18.6209 103.621 18.5971 103.947 18.5971C104.26 18.5971 104.539 18.6209 104.782 18.6664C105.03 18.7076 105.239 18.7921 105.409 18.9178C105.576 19.0456 105.707 19.219 105.8 19.4379C105.892 19.6524 105.939 19.9363 105.939 20.2873V26.6929C105.939 27.3993 105.644 27.9237 105.052 28.2704C104.558 28.5825 103.969 28.8208 103.286 28.9812C102.601 29.1416 101.855 29.2239 101.05 29.2239C100.289 29.2239 99.5885 29.1394 98.9447 28.9725C98.3053 28.8057 97.7528 28.5456 97.283 28.1924C96.8176 27.8414 96.4587 27.3863 96.2042 26.8316C95.9476 26.2768 95.8214 25.6072 95.8214 24.8206V18.7878Z" fill="#77AD78"/>
<path d="M114.658 22.3935C114.658 21.9602 114.532 21.6438 114.284 21.4401C114.034 21.232 113.696 21.128 113.274 21.128C112.996 21.128 112.718 21.1627 112.439 21.232C112.165 21.3014 111.93 21.4097 111.735 21.5528V28.8685C111.595 28.9075 111.371 28.9486 111.065 28.9898C110.762 29.0288 110.449 29.0505 110.125 29.0505C109.816 29.0505 109.538 29.0288 109.29 28.9898C109.04 28.9486 108.831 28.8663 108.664 28.7384C108.494 28.6128 108.363 28.4416 108.272 28.227C108.178 28.0082 108.133 27.7221 108.133 27.3689V21.0414C108.133 20.6665 108.213 20.3609 108.376 20.1226C108.537 19.8799 108.761 19.661 109.046 19.4638C109.527 19.1301 110.129 18.857 110.856 18.649C111.58 18.4367 112.387 18.3283 113.274 18.3283C114.869 18.3283 116.095 18.675 116.955 19.3685C117.818 20.0619 118.251 21.0284 118.251 22.2635V28.8685C118.112 28.9075 117.888 28.9486 117.581 28.9898C117.279 29.0288 116.965 29.0505 116.641 29.0505C116.333 29.0505 116.054 29.0288 115.806 28.9898C115.563 28.9486 115.354 28.8663 115.18 28.7384C115.01 28.6128 114.88 28.4416 114.788 28.227C114.701 28.0082 114.658 27.7221 114.658 27.3689V22.3935Z" fill="#77AD78"/>
<path d="M125.903 29.2238C125.072 29.2238 124.302 29.1068 123.589 28.8771C122.875 28.6474 122.253 28.3007 121.727 27.837C121.199 27.3689 120.781 26.786 120.474 26.0861C120.172 25.3818 120.022 24.5584 120.022 23.6157C120.022 22.6861 120.172 21.8886 120.474 21.2234C120.781 20.5538 121.181 20.0055 121.675 19.5765C122.166 19.1496 122.73 18.8354 123.363 18.6317C124 18.4302 124.65 18.3283 125.311 18.3283C126.06 18.3283 126.74 18.441 127.356 18.6664C127.969 18.8874 128.498 19.1951 128.939 19.5938C129.385 19.9882 129.731 20.4584 129.975 21.0067C130.223 21.5506 130.349 22.1465 130.349 22.7923C130.349 23.2733 130.214 23.6396 129.949 23.8931C129.681 24.1423 129.307 24.3048 128.826 24.3785L123.598 25.1586C123.754 25.6223 124.072 25.969 124.555 26.1987C125.035 26.4306 125.586 26.5455 126.208 26.5455C126.782 26.5455 127.326 26.474 127.843 26.3288C128.359 26.1792 128.778 26.0059 129.105 25.8087C129.331 25.9474 129.518 26.1446 129.67 26.3981C129.827 26.6538 129.905 26.9182 129.905 27.1956C129.905 27.8326 129.609 28.3029 129.018 28.6084C128.565 28.8511 128.056 29.0115 127.495 29.0938C126.932 29.1805 126.401 29.2238 125.903 29.2238ZM125.311 20.9373C124.974 20.9373 124.681 20.9958 124.433 21.1107C124.189 21.2212 123.989 21.3664 123.832 21.5441C123.676 21.7175 123.558 21.9146 123.484 22.1335C123.408 22.348 123.363 22.5669 123.345 22.7923L126.964 22.2029C126.923 21.9211 126.767 21.6394 126.495 21.3621C126.227 21.0804 125.833 20.9373 125.311 20.9373Z" fill="#77AD78"/>
<path d="M137.517 29.2238C136.686 29.2238 135.916 29.1068 135.202 28.8771C134.489 28.6474 133.867 28.3007 133.341 27.837C132.812 27.3689 132.395 26.786 132.088 26.0861C131.786 25.3818 131.635 24.5584 131.635 23.6157C131.635 22.6861 131.786 21.8886 132.088 21.2234C132.395 20.5538 132.795 20.0055 133.288 19.5765C133.78 19.1496 134.343 18.8354 134.976 18.6317C135.614 18.4302 136.264 18.3283 136.925 18.3283C137.673 18.3283 138.354 18.441 138.97 18.6664C139.583 18.8874 140.111 19.1951 140.553 19.5938C140.999 19.9882 141.345 20.4584 141.588 21.0067C141.836 21.5506 141.962 22.1465 141.962 22.7923C141.962 23.2733 141.828 23.6396 141.562 23.8931C141.295 24.1423 140.921 24.3048 140.44 24.3785L135.211 25.1586C135.368 25.6223 135.685 25.969 136.168 26.1987C136.649 26.4306 137.199 26.5455 137.821 26.5455C138.395 26.5455 138.939 26.474 139.457 26.3288C139.972 26.1792 140.392 26.0059 140.718 25.8087C140.944 25.9474 141.132 26.1446 141.284 26.3981C141.44 26.6538 141.519 26.9182 141.519 27.1956C141.519 27.8326 141.223 28.3029 140.631 28.6084C140.179 28.8511 139.67 29.0115 139.109 29.0938C138.545 29.1805 138.015 29.2238 137.517 29.2238ZM136.925 20.9373C136.588 20.9373 136.294 20.9958 136.046 21.1107C135.803 21.2212 135.603 21.3664 135.446 21.5441C135.289 21.7175 135.172 21.9146 135.098 22.1335C135.022 22.348 134.976 22.5669 134.959 22.7923L138.578 22.2029C138.537 21.9211 138.38 21.6394 138.108 21.3621C137.841 21.0804 137.447 20.9373 136.925 20.9373Z" fill="#77AD78"/>
<path d="M72.178 37.2588H74.5444C75.1643 37.2588 75.695 37.3628 76.1365 37.5709C76.5759 37.7789 76.9108 38.0736 77.137 38.455C77.3676 38.8364 77.485 39.2828 77.485 39.7898C77.485 40.5136 77.3241 41.1507 77.0065 41.7054C76.6868 42.2602 76.2344 42.6936 75.6493 43.0056C75.0621 43.3177 74.3835 43.4737 73.6135 43.4737H70.9252L72.178 37.2588ZM73.6309 42.9016C74.2747 42.9016 74.8359 42.7716 75.3187 42.5116C75.8059 42.2472 76.1757 41.8831 76.4323 41.4194C76.6933 40.9513 76.8238 40.4183 76.8238 39.8158C76.8238 39.2048 76.6237 38.7215 76.2235 38.3683C75.8277 38.0108 75.2448 37.8309 74.4748 37.8309H72.7087L71.6995 42.9016H73.6309Z" fill="#263238"/>
<path d="M80.2393 43.517C79.8086 43.517 79.4324 43.4368 79.1083 43.2743C78.7886 43.1139 78.5428 42.8821 78.3688 42.5809C78.1948 42.2818 78.1078 41.9351 78.1078 41.5407C78.1078 41.0163 78.2231 40.5417 78.4558 40.1192C78.6863 39.6988 79.0082 39.3694 79.4215 39.131C79.8326 38.8883 80.2958 38.767 80.8135 38.767C81.4681 38.767 81.988 38.9469 82.3708 39.3044C82.7536 39.6576 82.945 40.1365 82.945 40.7433C82.945 41.2699 82.8275 41.7444 82.597 42.1648C82.3642 42.5874 82.0423 42.9189 81.6313 43.1616C81.218 43.4 80.7548 43.517 80.2393 43.517ZM80.2828 42.9623C80.6656 42.9623 81.0092 42.8712 81.3181 42.6849C81.6313 42.4942 81.8749 42.232 82.0489 41.8961C82.2229 41.5624 82.3099 41.1897 82.3099 40.7779C82.3099 40.3229 82.1728 39.9675 81.901 39.7118C81.6334 39.4518 81.2572 39.3217 80.77 39.3217C80.3872 39.3217 80.0392 39.4171 79.726 39.6078C79.4171 39.7941 79.1779 40.0542 79.0039 40.3879C78.8299 40.7238 78.7429 41.0987 78.7429 41.5147C78.7429 41.9719 78.8756 42.3273 79.1431 42.5809C79.415 42.8366 79.7956 42.9623 80.2828 42.9623Z" fill="#263238"/>
<path d="M85.8587 43.517C85.4172 43.517 85.0322 43.4368 84.7016 43.2743C84.3754 43.1139 84.1274 42.8821 83.9534 42.5809C83.7794 42.2818 83.6924 41.9351 83.6924 41.5407C83.6924 41.0163 83.8077 40.5417 84.0404 40.1192C84.271 39.6988 84.5929 39.3694 85.0061 39.131C85.4237 38.8883 85.8935 38.767 86.4155 38.767C86.8505 38.767 87.2246 38.8493 87.5378 39.0097C87.851 39.1657 88.0903 39.3976 88.2599 39.7031L87.7292 40.0152C87.4617 39.5536 87.0071 39.3217 86.3633 39.3217C85.9805 39.3217 85.6325 39.4171 85.3193 39.6078C85.0061 39.7941 84.7625 40.0542 84.5885 40.3879C84.4145 40.7173 84.3275 41.0943 84.3275 41.5147C84.3275 41.9719 84.4602 42.3273 84.7277 42.5809C84.9996 42.8366 85.3846 42.9623 85.8848 42.9623C86.185 42.9623 86.4634 42.9059 86.72 42.7889C86.981 42.674 87.1942 42.5072 87.3638 42.2862L87.8162 42.6329C87.6074 42.9102 87.329 43.1269 86.981 43.283C86.633 43.439 86.2589 43.517 85.8587 43.517Z" fill="#263238"/>
<path d="M93.9095 38.8017L92.9786 43.4737H92.3697L92.5176 42.7282C92.0826 43.2548 91.4779 43.517 90.708 43.517C90.186 43.517 89.7771 43.3848 89.4813 43.1183C89.1898 42.8474 89.0463 42.4725 89.0463 41.9915C89.0463 41.8246 89.0637 41.6513 89.0985 41.4714L89.6379 38.8017H90.2643L89.7336 41.4714C89.7031 41.6339 89.6901 41.7726 89.6901 41.8875C89.6901 42.2298 89.7879 42.492 89.9859 42.6762C90.1816 42.8626 90.4818 42.9536 90.882 42.9536C91.38 42.9536 91.7911 42.8149 92.1174 42.5376C92.448 42.2558 92.6676 41.8485 92.7785 41.3154L93.2744 38.8017H93.9095Z" fill="#263238"/>
<path d="M101.409 38.767C101.935 38.767 102.344 38.9014 102.635 39.1657C102.925 39.4258 103.07 39.7941 103.07 40.2665C103.07 40.4052 103.046 40.5916 103.001 40.8213L102.47 43.4737H101.835L102.374 40.8126C102.403 40.6739 102.418 40.5309 102.418 40.3792C102.418 40.0455 102.318 39.7876 102.122 39.6078C101.924 39.4301 101.637 39.3391 101.261 39.3391C100.784 39.3391 100.386 39.4734 100.069 39.7378C99.7557 39.9978 99.5469 40.3857 99.4425 40.8993L98.9205 43.4737H98.2941L98.8248 40.8126C98.8531 40.6458 98.8683 40.5049 98.8683 40.3879C98.8683 40.0477 98.7726 39.7876 98.5812 39.6078C98.3898 39.4301 98.0983 39.3391 97.7112 39.3391C97.2283 39.3391 96.8325 39.4778 96.5193 39.7551C96.2061 40.0282 95.9908 40.4312 95.8755 40.9686L95.3796 43.4737H94.7445L95.6754 38.8017H96.2757L96.1278 39.5471C96.5563 39.027 97.1479 38.767 97.9026 38.767C98.2897 38.767 98.616 38.8493 98.877 39.0097C99.1423 39.1722 99.3294 39.4041 99.4338 39.7031C99.6643 39.3976 99.9471 39.1657 100.278 39.0097C100.613 38.8493 100.991 38.767 101.409 38.767Z" fill="#263238"/>
<path d="M104.786 41.3154C104.779 41.3565 104.777 41.4194 104.777 41.506C104.777 41.9806 104.91 42.3425 105.177 42.5895C105.449 42.8387 105.852 42.9623 106.387 42.9623C106.693 42.9623 106.98 42.9102 107.248 42.8062C107.52 42.7022 107.744 42.5592 107.918 42.3728L108.205 42.8236C107.983 43.0446 107.709 43.2136 107.378 43.335C107.048 43.4563 106.7 43.517 106.334 43.517C105.656 43.517 105.121 43.3415 104.734 42.9883C104.344 42.6307 104.151 42.1453 104.151 41.5321C104.151 41.012 104.259 40.5417 104.481 40.1192C104.707 39.6988 105.016 39.3694 105.412 39.131C105.806 38.8883 106.25 38.767 106.743 38.767C107.37 38.767 107.866 38.9447 108.231 39.2957C108.596 39.649 108.779 40.1344 108.779 40.7519C108.779 40.921 108.757 41.1073 108.718 41.3154H104.786ZM106.726 39.3044C106.256 39.3044 105.852 39.4431 105.517 39.7205C105.186 39.9978 104.962 40.3749 104.847 40.8473H108.187C108.192 40.8083 108.196 40.7498 108.196 40.6739C108.196 40.2405 108.061 39.9068 107.796 39.6685C107.528 39.4258 107.172 39.3044 106.726 39.3044Z" fill="#263238"/>
<path d="M112.793 38.767C113.319 38.767 113.728 38.9035 114.02 39.1744C114.315 39.4409 114.463 39.8115 114.463 40.2839C114.463 40.4529 114.446 40.6306 114.411 40.8213L113.88 43.4737H113.245L113.776 40.8126C113.811 40.6458 113.828 40.5049 113.828 40.3879C113.828 40.0477 113.724 39.7876 113.515 39.6078C113.31 39.4301 113.01 39.3391 112.61 39.3391C112.106 39.3391 111.69 39.4778 111.366 39.7551C111.04 40.0282 110.82 40.4312 110.705 40.9686L110.209 43.4737H109.574L110.505 38.8017H111.105L110.957 39.5471C111.403 39.027 112.014 38.767 112.793 38.767Z" fill="#263238"/>
<path d="M116.622 42.0608C116.598 42.206 116.587 42.3035 116.587 42.3555C116.587 42.7715 116.813 42.9796 117.266 42.9796C117.531 42.9796 117.772 42.8994 117.988 42.7369L118.136 43.2136C117.868 43.4173 117.52 43.517 117.092 43.517C116.744 43.517 116.465 43.426 116.256 43.2396C116.052 43.0489 115.952 42.7867 115.952 42.4508C115.952 42.3251 115.963 42.2038 115.987 42.0868L116.535 39.3391H115.7L115.804 38.8016H116.639L116.839 37.7875H117.474L117.274 38.8016H118.692L118.588 39.3391H117.161L116.622 42.0608Z" fill="#263238"/>
<path d="M121.308 43.517C120.877 43.517 120.501 43.4368 120.177 43.2743C119.857 43.1139 119.611 42.8821 119.437 42.5809C119.263 42.2818 119.176 41.9351 119.176 41.5407C119.176 41.0163 119.292 40.5417 119.524 40.1192C119.755 39.6988 120.077 39.3694 120.49 39.131C120.901 38.8883 121.364 38.767 121.882 38.767C122.537 38.767 123.056 38.9469 123.439 39.3044C123.822 39.6576 124.013 40.1365 124.013 40.7433C124.013 41.2699 123.896 41.7444 123.665 42.1648C123.433 42.5874 123.111 42.9189 122.7 43.1616C122.287 43.4 121.823 43.517 121.308 43.517ZM121.351 42.9623C121.734 42.9623 122.078 42.8712 122.387 42.6849C122.7 42.4942 122.943 42.232 123.117 41.8961C123.291 41.5624 123.378 41.1897 123.378 40.7779C123.378 40.3229 123.241 39.9675 122.969 39.7118C122.702 39.4518 122.326 39.3217 121.838 39.3217C121.456 39.3217 121.108 39.4171 120.794 39.6078C120.486 39.7941 120.246 40.0542 120.072 40.3879C119.898 40.7238 119.811 41.0987 119.811 41.5147C119.811 41.9719 119.944 42.3273 120.212 42.5809C120.483 42.8366 120.864 42.9623 121.351 42.9623Z" fill="#263238"/>
<path d="M128.521 37.2588H130.887C131.507 37.2588 132.038 37.3628 132.48 37.5709C132.919 37.7789 133.254 38.0736 133.48 38.455C133.711 38.8364 133.828 39.2828 133.828 39.7898C133.828 40.5136 133.667 41.1507 133.35 41.7054C133.03 42.2602 132.577 42.6936 131.992 43.0056C131.405 43.3177 130.726 43.4737 129.957 43.4737H127.268L128.521 37.2588ZM129.974 42.9016C130.618 42.9016 131.179 42.7716 131.662 42.5116C132.149 42.2472 132.519 41.8831 132.775 41.4194C133.036 40.9513 133.167 40.4183 133.167 39.8158C133.167 39.2048 132.967 38.7215 132.567 38.3683C132.171 38.0108 131.588 37.8309 130.818 37.8309H129.052L128.043 42.9016H129.974Z" fill="#263238"/>
<path d="M135.426 38.8017H136.052L135.13 43.4737H134.495L135.426 38.8017ZM136.009 37.7876C135.88 37.7876 135.776 37.7486 135.695 37.6662C135.619 37.5796 135.582 37.4799 135.582 37.3629C135.582 37.2307 135.626 37.118 135.713 37.0248C135.804 36.9338 135.924 36.8861 136.07 36.8861C136.191 36.8861 136.291 36.9273 136.374 37.0075C136.461 37.0898 136.505 37.1808 136.505 37.2849C136.505 37.43 136.455 37.5514 136.357 37.6489C136.263 37.7421 136.148 37.7876 136.009 37.7876Z" fill="#263238"/>
<path d="M142.163 38.8017L141.345 42.9016C141.182 43.7207 140.88 44.3166 140.44 44.6872C139.999 45.0555 139.392 45.2419 138.622 45.2419C138.18 45.2419 137.782 45.1812 137.43 45.0599C137.076 44.9385 136.778 44.7652 136.534 44.5398L136.908 44.0631C137.099 44.2538 137.345 44.4033 137.648 44.5138C137.954 44.6222 138.294 44.6785 138.665 44.6785C139.25 44.6785 139.705 44.542 140.031 44.2711C140.362 43.9981 140.582 43.5798 140.693 43.0143L140.806 42.4942C140.579 42.7499 140.305 42.9493 139.988 43.0923C139.668 43.231 139.318 43.3003 138.935 43.3003C138.309 43.3003 137.806 43.1334 137.43 42.7976C137.052 42.4574 136.865 41.9958 136.865 41.4107C136.865 40.9145 136.978 40.4659 137.204 40.0672C137.434 39.6641 137.754 39.3456 138.161 39.1137C138.565 38.884 139.024 38.767 139.535 38.767C139.981 38.767 140.364 38.8602 140.684 39.0444C141.008 39.2242 141.234 39.4864 141.362 39.8331L141.563 38.8017H142.163ZM139.057 42.7369C139.444 42.7369 139.792 42.6502 140.101 42.4769C140.414 42.2992 140.658 42.0521 140.832 41.7401C141.006 41.4237 141.093 41.0683 141.093 40.6739C141.093 40.2535 140.956 39.9242 140.684 39.6858C140.41 39.4431 140.031 39.3217 139.544 39.3217C139.155 39.3217 138.805 39.4128 138.491 39.5904C138.183 39.7638 137.943 40.0108 137.769 40.3272C137.595 40.6393 137.508 40.9903 137.508 41.376C137.508 41.8051 137.643 42.1388 137.917 42.3815C138.189 42.6199 138.57 42.7369 139.057 42.7369Z" fill="#263238"/>
<path d="M143.932 38.8017H144.558L143.636 43.4737H143.001L143.932 38.8017ZM144.514 37.7876C144.386 37.7876 144.282 37.7486 144.201 37.6662C144.125 37.5796 144.088 37.4799 144.088 37.3629C144.088 37.2307 144.132 37.118 144.219 37.0248C144.31 36.9338 144.43 36.8861 144.575 36.8861C144.697 36.8861 144.797 36.9273 144.88 37.0075C144.967 37.0898 145.01 37.1808 145.01 37.2849C145.01 37.43 144.96 37.5514 144.862 37.6489C144.769 37.7421 144.654 37.7876 144.514 37.7876Z" fill="#263238"/>
<path d="M146.414 42.0608C146.39 42.206 146.379 42.3035 146.379 42.3555C146.379 42.7715 146.606 42.9796 147.058 42.9796C147.323 42.9796 147.565 42.8994 147.78 42.7369L147.928 43.2136C147.661 43.4173 147.313 43.517 146.884 43.517C146.536 43.517 146.258 43.426 146.049 43.2396C145.844 43.0489 145.744 42.7867 145.744 42.4508C145.744 42.3251 145.755 42.2038 145.779 42.0868L146.327 39.3391H145.492L145.596 38.8016H146.432L146.632 37.7875H147.267L147.067 38.8016H148.485L148.38 39.3391H146.954L146.414 42.0608Z" fill="#263238"/>
<path d="M154.224 38.8017L153.293 43.4737H152.684L152.832 42.7369C152.61 42.9861 152.345 43.179 152.032 43.3176C151.723 43.452 151.383 43.517 151.014 43.517C150.613 43.517 150.257 43.439 149.944 43.283C149.635 43.1226 149.395 42.8907 149.221 42.5895C149.052 42.2905 148.969 41.9394 148.969 41.5407C148.969 41.0163 149.082 40.5417 149.308 40.1192C149.539 39.6988 149.857 39.3694 150.257 39.131C150.661 38.8883 151.114 38.767 151.614 38.767C152.06 38.767 152.434 38.858 152.736 39.0357C153.036 39.2091 153.258 39.4583 153.397 39.7811L153.589 38.8017H154.224ZM151.144 42.9623C151.527 42.9623 151.871 42.8712 152.179 42.6849C152.493 42.4942 152.736 42.232 152.91 41.8961C153.084 41.5624 153.171 41.1897 153.171 40.7779C153.171 40.3229 153.034 39.9675 152.762 39.7118C152.495 39.4518 152.119 39.3217 151.631 39.3217C151.249 39.3217 150.901 39.4171 150.587 39.6078C150.279 39.7941 150.039 40.0542 149.865 40.3879C149.691 40.7238 149.604 41.0987 149.604 41.5147C149.604 41.9719 149.737 42.3273 150.004 42.5809C150.276 42.8366 150.657 42.9623 151.144 42.9623Z" fill="#263238"/>
<path d="M156.374 36.8861H157L155.686 43.4737H155.051L156.374 36.8861Z" fill="#263238"/>
</svg>
