<svg width="30" height="31" viewBox="0 0 30 31" fill="none" xmlns="http://www.w3.org/2000/svg">
<path fill-rule="evenodd" clip-rule="evenodd" d="M14.9998 2.26444C10.9957 2.26444 7.74976 5.50684 7.74976 9.50654C7.74976 12.8087 9.96224 15.5947 12.9872 16.466C10.5992 16.7566 8.5509 17.6004 7.00791 19.1194C5.04409 21.0527 4.0498 23.9308 4.0498 27.6865C4.0498 28.2107 4.47514 28.6355 4.9998 28.6355C5.52448 28.6355 5.9498 28.2107 5.9498 27.6865C5.9498 24.2502 6.85548 21.9342 8.34158 20.4712C9.83048 19.0054 12.0532 18.247 14.9997 18.247C17.9461 18.247 20.169 19.0054 21.658 20.4712C23.144 21.9342 24.0498 24.2502 24.0498 27.6865C24.0498 28.2107 24.475 28.6355 24.9998 28.6355C25.5244 28.6357 25.9498 28.2107 25.9498 27.6867C25.9498 23.9308 24.9554 21.0527 22.9916 19.1194C21.4486 17.6004 19.4003 16.7567 17.0123 16.466C20.0372 15.5947 22.2498 12.8087 22.2498 9.50654C22.2498 5.50684 19.0038 2.26444 14.9998 2.26444ZM9.64976 9.50654C9.64976 6.55504 12.045 4.16237 14.9998 4.16237C17.9545 4.16237 20.3498 6.55504 20.3498 9.50654C20.3498 12.458 17.9545 14.8507 14.9998 14.8507C12.045 14.8507 9.64976 12.458 9.64976 9.50654Z" fill="white"/>
</svg>
