<svg width="22" height="25" viewBox="0 0 22 25" fill="none" xmlns="http://www.w3.org/2000/svg">
<path d="M10.9973 10.7108C10.5301 10.7108 10.1426 10.3183 10.1426 9.84516V6.00159C10.1426 5.52836 10.5301 5.13593 10.9973 5.13593C11.4646 5.13593 11.8521 5.52836 11.8521 6.00159V9.84516C11.8521 10.3299 11.4646 10.7108 10.9973 10.7108Z" fill="#0B0B0B" fill-opacity="0.65"/>
<path d="M11.0197 22.0572C8.07932 22.0572 5.15041 21.584 2.35826 20.6375C1.32118 20.2912 0.534818 19.541 0.192922 18.5945C-0.148974 17.6481 -0.0350089 16.5631 0.523421 15.6166L1.97078 13.1697C2.28988 12.6272 2.5748 11.6115 2.5748 10.9766V8.5528C2.5748 3.83202 6.35845 0 11.0197 0C15.6808 0 19.4645 3.83202 19.4645 8.5528V10.9766C19.4645 11.5999 19.7494 12.6272 20.0685 13.1697L21.5159 15.6166C22.0515 16.5169 22.1427 17.5903 21.7894 18.5714C21.4361 19.5525 20.6611 20.3028 19.681 20.6375C16.8889 21.5955 13.96 22.0572 11.0197 22.0572ZM11.0197 1.74288C7.30436 1.74288 4.28428 4.80157 4.28428 8.56434V10.9882C4.28428 11.9231 3.91959 13.2735 3.44093 14.07L1.99357 16.5285C1.69726 17.0248 1.62888 17.5557 1.79983 18.0174C1.97078 18.4791 2.35826 18.8254 2.9053 19.01C8.1477 20.776 13.9144 20.776 19.1568 19.01C19.6468 18.8484 20.0229 18.4791 20.1939 17.9943C20.3762 17.5095 20.3192 16.9786 20.0571 16.5285L18.6097 14.0815C18.1311 13.2851 17.7664 11.9346 17.7664 10.9997V8.57589C17.755 4.80157 14.7349 1.74288 11.0197 1.74288Z" fill="#0B0B0B" fill-opacity="0.65"/>
<path d="M10.9969 25C9.7775 25 8.58089 24.4921 7.71475 23.6149C6.84862 22.7377 6.34717 21.5258 6.34717 20.2908H8.05665C8.05665 21.0756 8.37575 21.8374 8.92276 22.3915C9.46979 22.9455 10.222 23.2687 10.9969 23.2687C12.6152 23.2687 13.9372 21.9298 13.9372 20.2908H15.6467C15.6467 22.8878 13.5611 25 10.9969 25Z" fill="#0B0B0B" fill-opacity="0.65"/>
</svg>
