<svg width="24" height="32" viewBox="0 0 24 32" fill="none" xmlns="http://www.w3.org/2000/svg">
<path d="M21 13V9C21 4.029 16.971 0 12 0C7.029 0 3 4.029 3 9V13C1.343 13 0 14.343 0 16V19V20V22V23C0 27.971 4.029 32 9 32H15C19.971 32 24 27.971 24 23V22V20V19V16C24 14.342 22.656 13 21 13ZM5 9C5 5.134 8.134 2 12 2C15.866 2 19 5.134 19 9V13H17V9.002C17 6.24 14.762 4.002 12 4.002C9.238 4.002 7 6.24 7 9.002V13H5V9ZM16 9V9.003V13H8V9.002V9C8 6.791 9.791 5 12 5C14.209 5 16 6.791 16 9ZM22 19V20V22V23C22 26.859 18.859 30 15 30H9C5.141 30 2 26.859 2 23V22V20V19V16C2 15.448 2.448 15 3 15C3.667 15 4.333 15 5 15H19C19.666 15 20.332 15 21 15C21.551 15 22 15.448 22 16V19Z" fill="#3F6990"/>
<path d="M12 19C10.896 19 10 19.895 10 21C10 21.607 10.333 22.76 10.667 23.672C10.939 24.414 11.281 24.998 12 24.998C12.782 24.998 13.061 24.42 13.334 23.682C13.672 22.768 14 21.609 14 21C14 19.895 13.104 19 12 19Z" fill="#3F6990"/>
</svg>
