<svg width="32" height="32" viewBox="0 0 32 32" fill="none" xmlns="http://www.w3.org/2000/svg">
<g clip-path="url(#clip0_252_536)">
<path d="M24.0002 11C23.8686 10.9992 23.7381 11.0245 23.6163 11.0742C23.4944 11.124 23.3836 11.1973 23.2902 11.29L16.0002 18.59L8.71019 11.29C8.52188 11.1017 8.26649 10.9959 8.00019 10.9959C7.73388 10.9959 7.47849 11.1017 7.29019 11.29C7.10188 11.4783 6.99609 11.7337 6.99609 12C6.99609 12.2663 7.10188 12.5217 7.29019 12.71L15.2902 20.71C15.3831 20.8037 15.4937 20.8781 15.6156 20.9289C15.7375 20.9797 15.8682 21.0058 16.0002 21.0058C16.1322 21.0058 16.2629 20.9797 16.3848 20.9289C16.5066 20.8781 16.6172 20.8037 16.7102 20.71L24.7102 12.71C24.8039 12.617 24.8783 12.5064 24.9291 12.3846C24.9798 12.2627 25.006 12.132 25.006 12C25.006 11.868 24.9798 11.7373 24.9291 11.6154C24.8783 11.4936 24.8039 11.383 24.7102 11.29C24.6167 11.1973 24.5059 11.124 24.3841 11.0742C24.2623 11.0245 24.1318 10.9992 24.0002 11Z" fill="#0B0B0B" fill-opacity="0.65"/>
</g>
<defs>
<clipPath id="clip0_252_536">
<rect width="32" height="32" fill="white" transform="matrix(1 0 0 -1 0 32)"/>
</clipPath>
</defs>
</svg>
