<svg width="30" height="31" viewBox="0 0 30 31" fill="none" xmlns="http://www.w3.org/2000/svg">
<path d="M14.9998 27.2035C13.2688 27.2022 10.5674 25.1037 9.78126 24.4605C9.65422 24.3567 9.5489 24.2288 9.47131 24.0843C9.39372 23.9398 9.34539 23.7815 9.32907 23.6183C9.31274 23.4551 9.32875 23.2904 9.37618 23.1334C9.42361 22.9764 9.50152 22.8303 9.60548 22.7034C9.70944 22.5765 9.8374 22.4713 9.98206 22.3938C10.1267 22.3163 10.2853 22.268 10.4486 22.2517C10.6119 22.2354 10.7769 22.2514 10.934 22.2987C11.0912 22.3461 11.2375 22.4239 11.3645 22.5278C12.4062 23.508 13.648 24.2511 15.0047 24.7062C16.5531 24.633 25.3605 18.2667 25.3605 11.059C25.3614 10.301 25.2562 9.54665 25.048 8.81778C24.7689 7.86372 24.1877 7.02575 23.3915 6.42954C22.5953 5.83332 21.6271 5.511 20.6321 5.5109C19.6223 5.54592 18.6487 5.89497 17.8471 6.50934C17.0455 7.12371 16.4559 7.97275 16.1607 8.93795C16.0678 9.16959 15.9076 9.36814 15.7008 9.508C15.4939 9.64786 15.2499 9.72261 15.0001 9.72261C14.7503 9.72261 14.5062 9.64786 14.2994 9.508C14.0925 9.36814 13.9323 9.16959 13.8395 8.93795C13.5441 7.97279 12.9545 7.1238 12.1529 6.50944C11.3514 5.89509 10.3778 5.546 9.36805 5.5109C8.37303 5.51107 7.40485 5.83334 6.60862 6.42942C5.81239 7.02551 5.23099 7.86329 4.95155 8.81723C4.74389 9.54641 4.63892 10.3009 4.63966 11.059C4.84158 14.0614 6.03144 16.9129 8.02405 19.1697C8.23206 19.4275 8.32905 19.7572 8.29368 20.0864C8.25831 20.4156 8.09348 20.7172 7.83545 20.925C7.57742 21.1328 7.24733 21.2297 6.91779 21.1944C6.58825 21.159 6.28626 20.9944 6.07825 20.7366C3.72255 18.0393 2.33633 14.6332 2.13965 11.059C2.13884 10.0689 2.27627 9.08353 2.54798 8.13133C2.97817 6.65648 3.87527 5.36063 5.10484 4.43797C6.3344 3.51532 7.8302 3.01557 9.36805 3.01363C10.4705 3.01543 11.5566 3.28001 12.5361 3.7854C13.5156 4.29079 14.3602 5.02239 14.9998 5.91939C15.6394 5.02232 16.4841 4.29068 17.4637 3.78529C18.4433 3.2799 19.5295 3.01535 20.6321 3.01363C22.1698 3.01543 23.6655 3.51506 24.895 4.43762C26.1245 5.36018 27.0215 6.65596 27.4515 8.13072C27.7239 9.083 27.8615 10.0687 27.8605 11.059C27.8605 19.5715 17.9667 27.2035 14.9998 27.2035Z" fill="white"/>
<path d="M14.5888 20.0489C14.2573 20.0487 13.9394 19.9171 13.705 19.683L10.9914 16.9724C10.7594 16.7378 10.6298 16.421 10.6309 16.0912C10.6319 15.7615 10.7635 15.4455 10.9969 15.2123C11.2303 14.9791 11.5466 14.8477 11.8768 14.8466C12.2069 14.8456 12.524 14.975 12.7589 15.2067L14.4697 16.9151L18.387 11.8638C18.4872 11.7335 18.6123 11.6243 18.7549 11.5424C18.8975 11.4605 19.0549 11.4075 19.2181 11.3865C19.3813 11.3655 19.547 11.3769 19.7057 11.42C19.8645 11.4631 20.0132 11.5371 20.1432 11.6378C20.2733 11.7384 20.3822 11.8637 20.4637 12.0064C20.5452 12.1492 20.5976 12.3066 20.6181 12.4697C20.6385 12.6328 20.6265 12.7983 20.5828 12.9567C20.5391 13.1151 20.4645 13.2634 20.3633 13.3929L15.5769 19.5648C15.4682 19.705 15.3309 19.8204 15.1741 19.9035C15.0173 19.9865 14.8446 20.0352 14.6675 20.0464C14.6413 20.0483 14.615 20.0489 14.5888 20.0489Z" fill="white"/>
</svg>
