<svg width="26" height="29" viewBox="0 0 26 29" fill="none" xmlns="http://www.w3.org/2000/svg">
<path d="M7.29302 5.70732C6.77302 5.70732 6.3418 5.2761 6.3418 4.7561V0.951219C6.3418 0.431219 6.77302 0 7.29302 0C7.81302 0 8.24424 0.431219 8.24424 0.951219V4.7561C8.24424 5.2761 7.81302 5.70732 7.29302 5.70732Z" fill="#3F6990"/>
<path d="M17.439 5.70732C16.919 5.70732 16.4878 5.2761 16.4878 4.7561V0.951219C16.4878 0.431219 16.919 0 17.439 0C17.959 0 18.3902 0.431219 18.3902 0.951219V4.7561C18.3902 5.2761 17.959 5.70732 17.439 5.70732Z" fill="#3F6990"/>
<path d="M7.92698 16.8048C7.59723 16.8048 7.26747 16.6652 7.0265 16.4369C6.7982 16.196 6.65869 15.8789 6.65869 15.5365C6.65869 15.3716 6.69674 15.2067 6.76015 15.0545C6.82357 14.9023 6.91235 14.7629 7.0265 14.6361C7.49576 14.1668 8.34552 14.1668 8.82747 14.6361C9.05576 14.8771 9.19528 15.2067 9.19528 15.5365C9.19528 15.6126 9.18259 15.7015 9.16991 15.7902C9.15723 15.8663 9.13186 15.9423 9.09381 16.0184C9.06845 16.0945 9.0304 16.1706 8.97967 16.2467C8.92894 16.3101 8.8782 16.3735 8.82747 16.4369C8.5865 16.6652 8.25674 16.8048 7.92698 16.8048Z" fill="#3F6990"/>
<path d="M12.3659 16.805C12.2011 16.805 12.0362 16.767 11.884 16.7036C11.7191 16.6401 11.5923 16.5514 11.4655 16.4372C11.2372 16.1962 11.0977 15.8792 11.0977 15.5367C11.0977 15.3719 11.1357 15.207 11.1991 15.0548C11.2625 14.9026 11.3513 14.7631 11.4655 14.6362C11.5923 14.5221 11.7191 14.4333 11.884 14.3699C12.3533 14.1797 12.9113 14.2811 13.2664 14.6362C13.4947 14.8772 13.6342 15.207 13.6342 15.5367C13.6342 15.6128 13.6216 15.7016 13.6089 15.7904C13.5962 15.8665 13.5708 15.9426 13.5328 16.0187C13.5074 16.0948 13.4694 16.1709 13.4186 16.247C13.3806 16.3104 13.3172 16.3738 13.2664 16.4372C13.0255 16.6655 12.6957 16.805 12.3659 16.805Z" fill="#3F6990"/>
<path d="M7.92698 21.2439C7.76211 21.2439 7.59723 21.2059 7.44503 21.1425C7.28015 21.079 7.14064 20.9903 7.0265 20.8761C6.91235 20.762 6.82357 20.6225 6.76015 20.4576C6.69674 20.3054 6.65869 20.1405 6.65869 19.9756C6.65869 19.8107 6.69674 19.6459 6.76015 19.4937C6.82357 19.3288 6.91235 19.1893 7.0265 19.0751C7.14064 18.961 7.28015 18.8722 7.44503 18.8088C7.74942 18.682 8.10455 18.6693 8.40894 18.8088C8.57381 18.8722 8.71333 18.961 8.82747 19.0751C8.94162 19.1893 9.0304 19.3288 9.09381 19.4937C9.15723 19.6459 9.19528 19.8107 9.19528 19.9756C9.19528 20.1405 9.15723 20.3054 9.09381 20.4576C9.0304 20.6225 8.94162 20.762 8.82747 20.8761C8.71333 20.9903 8.57381 21.079 8.40894 21.1425C8.25674 21.2059 8.09186 21.2439 7.92698 21.2439Z" fill="#3F6990"/>
<path d="M23.1465 10.8944H1.5855C1.0655 10.8944 0.634277 10.4632 0.634277 9.94319C0.634277 9.42319 1.0655 8.99197 1.5855 8.99197H23.1465C23.6665 8.99197 24.0977 9.42319 24.0977 9.94319C24.0977 10.4632 23.6665 10.8944 23.1465 10.8944Z" fill="#3F6990"/>
<path d="M19.9756 28.5366C18.4917 28.5366 17.0839 28.0039 16.0058 27.0273C15.5492 26.6468 15.1434 26.1649 14.8136 25.6068C14.2556 24.6936 13.9512 23.6156 13.9512 22.5122C13.9512 19.1893 16.6526 16.4878 19.9756 16.4878C21.7004 16.4878 23.3492 17.2361 24.4907 18.5297C25.4673 19.6458 26 21.0536 26 22.5122C26 23.6156 25.6956 24.6936 25.1248 25.6195C24.0595 27.4205 22.0809 28.5366 19.9756 28.5366ZM19.9756 18.3902C17.7053 18.3902 15.8536 20.2419 15.8536 22.5122C15.8536 23.2605 16.0565 23.9961 16.4497 24.6302C16.6653 25.0107 16.9443 25.3278 17.2487 25.5941C18.0097 26.279 18.9609 26.6341 19.9756 26.6341C21.4341 26.6341 22.7531 25.8858 23.5014 24.6429C23.8946 23.9961 24.0975 23.2732 24.0975 22.5122C24.0975 21.5229 23.7297 20.559 23.0702 19.7854C22.2839 18.8975 21.1551 18.3902 19.9756 18.3902Z" fill="#3F6990"/>
<path d="M19.2525 24.719C19.0115 24.719 18.7705 24.6302 18.5803 24.44L17.3247 23.1844C16.9569 22.8166 16.9569 22.2079 17.3247 21.8401C17.6925 21.4723 18.3013 21.4723 18.6691 21.8401L19.2779 22.4489L21.3071 20.5718C21.6876 20.2167 22.2964 20.2421 22.6515 20.6225C23.0066 21.003 22.9813 21.6118 22.6008 21.9669L19.8993 24.4655C19.7091 24.6303 19.4808 24.719 19.2525 24.719Z" fill="#3F6990"/>
<path d="M16.64 27.2683H7.29268C2.66341 27.2683 0 24.6049 0 19.9756V9.19512C0 4.56585 2.66341 1.90244 7.29268 1.90244H17.439C22.0683 1.90244 24.7317 4.56585 24.7317 9.19512V19.1639C24.7317 19.5571 24.4907 19.9122 24.1102 20.0517C23.7424 20.1912 23.3239 20.0898 23.0576 19.7854C22.2712 18.8976 21.1424 18.3902 19.9629 18.3902C17.6927 18.3902 15.841 20.2419 15.841 22.5122C15.841 23.2605 16.0439 23.9961 16.4371 24.6302C16.6527 25.0107 16.9317 25.3278 17.2361 25.5941C17.5405 25.8478 17.6546 26.2663 17.5151 26.6468C17.401 27.0146 17.0459 27.2683 16.64 27.2683ZM7.29268 3.80487C3.66537 3.80487 1.90244 5.5678 1.90244 9.19512V19.9756C1.90244 23.6029 3.66537 25.3659 7.29268 25.3659H14.6741C14.2049 24.5034 13.9512 23.5268 13.9512 22.5122C13.9512 19.1893 16.6527 16.4878 19.9756 16.4878C20.9776 16.4878 21.9668 16.7415 22.8293 17.2107V9.19512C22.8293 5.5678 21.0663 3.80487 17.439 3.80487H7.29268Z" fill="#3F6990"/>
</svg>
