<svg width="26" height="26" viewBox="0 0 26 26" fill="none" xmlns="http://www.w3.org/2000/svg">
<path d="M11.5277 16.8295C11.2859 16.8295 11.0562 16.7328 10.887 16.5636L7.9612 13.6377C7.61059 13.2871 7.61059 12.7068 7.9612 12.3562C8.31182 12.0056 8.89215 12.0056 9.24276 12.3562L11.5277 14.6412L16.7265 9.44247C17.0771 9.09186 17.6575 9.09186 18.0081 9.44247C18.3587 9.79309 18.3587 10.3734 18.0081 10.724L12.1685 16.5636C11.9993 16.7328 11.7696 16.8295 11.5277 16.8295Z" fill="#3F6990"/>
<path d="M12.991 25.9939C12.2293 25.9939 11.4676 25.74 10.8752 25.2322L8.96488 23.588C8.77143 23.4187 8.28782 23.2494 8.03393 23.2494H5.95442C4.16507 23.2494 2.71425 21.7986 2.71425 20.0093V17.9418C2.71425 17.6879 2.54498 17.2164 2.37572 17.023L0.743547 15.1006C-0.247849 13.9279 -0.247849 12.0781 0.743547 10.9054L2.37572 8.98301C2.54498 8.78957 2.71425 8.31805 2.71425 8.06416V5.98464C2.71425 4.1953 4.16507 2.74447 5.95442 2.74447H8.04602C8.29992 2.74447 8.78352 2.56312 8.97696 2.40595L10.8873 0.761682C12.0721 -0.253894 13.9219 -0.253894 15.1067 0.761682L17.017 2.40595C17.2104 2.57521 17.694 2.74447 17.9479 2.74447H20.0033C21.7926 2.74447 23.2434 4.1953 23.2434 5.98464V8.03998C23.2434 8.29387 23.4248 8.77748 23.5941 8.97092L25.2383 10.8812C26.2539 12.066 26.2539 13.9158 25.2383 15.1006L23.5941 17.0109C23.4248 17.2043 23.2434 17.6879 23.2434 17.9418V19.9972C23.2434 21.7865 21.7926 23.2373 20.0033 23.2373H17.9479C17.694 23.2373 17.2104 23.4187 17.017 23.5759L15.1067 25.2201C14.5143 25.74 13.7526 25.9939 12.991 25.9939ZM5.95442 4.558C5.16856 4.558 4.52778 5.19878 4.52778 5.98464V8.05207C4.52778 8.74121 4.20134 9.62379 3.754 10.1437L2.12183 12.066C1.69867 12.5617 1.69867 13.4201 2.12183 13.9158L3.754 15.8382C4.20134 16.3701 4.52778 17.2406 4.52778 17.9298V19.9972C4.52778 20.783 5.16856 21.4238 5.95442 21.4238H8.04602C8.74725 21.4238 9.62984 21.7503 10.1618 22.2097L12.0721 23.8539C12.5678 24.2771 13.4383 24.2771 13.934 23.8539L15.8442 22.2097C16.3762 21.7623 17.2588 21.4238 17.96 21.4238H20.0154C20.8012 21.4238 21.442 20.783 21.442 19.9972V17.9418C21.442 17.2406 21.7684 16.358 22.2279 15.8261L23.8721 13.9158C24.2953 13.4201 24.2953 12.5496 23.8721 12.0539L22.2279 10.1437C21.7684 9.6117 21.442 8.72912 21.442 8.02789V5.98464C21.442 5.19878 20.8012 4.558 20.0154 4.558H17.96C17.2588 4.558 16.3762 4.23157 15.8442 3.77214L13.934 2.12787C13.4383 1.70472 12.5678 1.70472 12.0721 2.12787L10.1618 3.78423C9.62984 4.23157 8.73516 4.558 8.04602 4.558H5.95442Z" fill="#3F6990"/>
</svg>
