<svg width="50" height="50" viewBox="0 0 50 50" fill="none" xmlns="http://www.w3.org/2000/svg">
<path d="M36.8958 23.5208C36.7021 23.3256 36.4717 23.1706 36.2178 23.0648C35.964 22.959 35.6917 22.9046 35.4166 22.9046C35.1416 22.9046 34.8693 22.959 34.6154 23.0648C34.3616 23.1706 34.1312 23.3256 33.9375 23.5208L27.0833 30.3958V14.5833C27.0833 14.0308 26.8638 13.5009 26.4731 13.1102C26.0824 12.7195 25.5525 12.5 25 12.5C24.4474 12.5 23.9175 12.7195 23.5268 13.1102C23.1361 13.5009 22.9166 14.0308 22.9166 14.5833V30.3958L16.0625 23.5208C15.6702 23.1285 15.1381 22.9081 14.5833 22.9081C14.0285 22.9081 13.4964 23.1285 13.1041 23.5208C12.7118 23.9131 12.4915 24.4452 12.4915 25C12.4915 25.5548 12.7118 26.0869 13.1041 26.4792L23.5208 36.8958C23.7189 37.0855 23.9526 37.2342 24.2083 37.3333C24.4577 37.4436 24.7273 37.5005 25 37.5005C25.2726 37.5005 25.5423 37.4436 25.7916 37.3333C26.0474 37.2342 26.281 37.0855 26.4791 36.8958L36.8958 26.4792C37.0911 26.2855 37.2461 26.0551 37.3518 25.8012C37.4576 25.5473 37.5121 25.275 37.5121 25C37.5121 24.725 37.4576 24.4527 37.3518 24.1988C37.2461 23.9449 37.0911 23.7145 36.8958 23.5208Z" fill="#0B0B0B" fill-opacity="0.65"/>
</svg>
